# File generated by ImageToStl.com - Free Image and 3D model conversion tools

mtllib GravelPath6.mtl

# Plane010_0
o obj1
v 5476.43555862 8.54349852 12631.23872729
v 5524.20742822 17.18317219 12753.37505648
v 5443.08165026 8.63970879 12856.4269349
v 5314.18401909 -8.5434253 12837.3425318
v 5266.41213608 -17.18309822 12715.2062026
v 5347.53792 -8.63963557 12612.15428842
v 5263.27221107 6.89870332 12714.73083971
v 5311.04409409 15.53837625 12836.86714507
v 5439.94172525 32.72151257 12855.95159585
v 5521.06750619 41.26497224 12752.8996936
v 5473.29563808 32.62529783 12630.76335248
v 5344.39800692 15.44216598 12611.67892554
v 5998.13158226 0.81126822 12183.82297137
v 6080.08639526 15.03660857 12273.56255397
v 6043.66399956 14.22530557 12390.37391303
v 5925.28679085 -0.8113363 12417.44570141
v 5843.33197784 -15.03667591 12327.7061188
v 5879.75437355 -14.2253744 12210.8947359
v 5840.30689907 7.36023192 12326.91843977
v 5922.26173592 21.58557376 12416.65802834
v 6040.63894463 36.62221488 12389.58624592
v 6077.06134033 37.4335164 12272.77486302
v 5995.10652733 23.20817679 12183.03528042
v 5876.72929478 8.17153418 12210.10706879
v 5627.69088459 -0.22012036 12045.19808884
v 5619.50933647 -0.34283584 12045.51776049
v 5615.13768148 -0.12279227 12038.59718436
v 5618.94753885 0.21996679 12031.35684121
v 5627.12908697 0.34268227 12031.03716956
v 5631.50075388 0.1226387 12037.95774569
v 5627.10877371 1.85470832 12031.09801373
v 5618.92724943 1.73199284 12031.41773307
v 5615.11738014 1.38923379 12038.65807622
v 5619.48904705 1.16919021 12045.57870003
v 5627.67059517 1.29190569 12045.2589807
v 5631.48045254 1.63466475 12038.01863755
v 5233.98067665 3.57215292 12957.66962104
v 5236.69826698 -3.49433397 13009.57925964
v 5192.68822384 -7.0664089 13037.90395963
v 5145.96059036 -3.57199805 13014.31902101
v 5143.24302387 3.49448884 12962.40933472
v 5187.25304317 7.06656413 12934.08468242
v 5143.30293846 13.10126283 12963.71400731
v 5146.02052879 6.03477668 13015.62364591
v 5192.74813843 2.54036547 13039.20858453
v 5236.75818157 6.11244076 13010.88388454
v 5234.04059124 13.1789284 12958.97424594
v 5187.31298161 16.67333775 12935.38930732
v 5809.91434765 13.49440231 12492.1385787
v 5758.20274067 -1.62922763 12636.20933909
v 5607.29416323 -15.1236292 12662.73653149
v 5508.09715104 -13.49440009 12545.19294712
v 5559.80874014 1.62923059 12401.12218226
v 5710.71731758 15.12363291 12374.59500177
v 5557.66801548 29.89042384 12403.32049232
v 5505.95643085 14.76679464 12547.39125718
v 5605.15343857 13.13756553 12664.93482963
v 5756.06202793 26.63196562 12638.40764915
v 5807.77363491 41.75559854 12494.33688578
v 5708.57660484 43.38482765 12376.79331184
v 5156.01088715 -25.81709772 12505.01053746
v 5039.88430214 -8.87174727 12579.90451591
v 4918.95248604 16.94533929 12515.94662419
v 4914.14725494 25.8170739 12377.09477115
v 5030.27383995 8.87172494 12302.20079865
v 5151.20565605 -16.94536236 12366.15869671
v 5034.89906502 34.14021281 12303.65521939
v 4918.77248001 51.08556326 12378.54920381
v 4923.57771111 42.21383088 12517.40105574
v 5044.50952721 16.39674283 12581.35893665
v 5160.63611221 -0.54860762 12506.46496863
v 5155.83088112 8.32312849 12367.61311745
v 6023.76024437 -4.45982443 12696.97082703
v 5955.94837379 5.4294194 12829.08444904
v 5807.36131382 9.88927591 12836.31351421
v 5726.58614826 4.45988785 12711.42902889
v 5794.397995 -5.42935561 12579.31541285
v 5942.98503113 -9.88921175 12572.08631788
v 5795.14035892 22.01548359 12577.64209142
v 5727.32851219 31.90472929 12709.75568362
v 5808.10367775 37.33411586 12834.64019278
v 5956.69071388 32.87426271 12827.41112761
v 6024.50258446 22.98501701 12695.29751752
v 5943.72737122 17.55562969 12570.41299049
v 5933.77487373 8.21686461 12765.65313793
v 6023.00913048 12.38088212 12805.38337617
v 6033.84487343 4.16407388 12902.201014
v 5955.44635963 -8.21674963 12959.28843743
v 5866.21205521 -12.38076638 12919.55817535
v 5855.37631226 -4.16395852 12822.74053752
v 5864.61946678 5.53746672 12921.25709554
v 5953.85377121 9.70148422 12960.98735762
v 6032.252285 22.08230885 12903.89995803
v 6021.41654205 30.29911522 12807.0823202
v 5932.18228531 26.13509846 12767.35208196
v 5853.78374767 13.75427458 12824.43945772
v 4990.21599007 -1.96267297 12756.2236371
v 4995.24123383 -0.60421583 12766.76822306
v 4988.57056808 1.35849849 12776.2517032
v 4976.87456322 1.96275643 12775.19059737
v 4971.84931946 0.60429929 12764.64601141
v 4978.52003288 -1.35841541 12755.16253128
v 4971.99108315 2.74563484 12764.3025691
v 4977.0163269 4.10409198 12774.84715506
v 4988.71233177 3.49983442 12775.90826088
v 4995.3830452 1.53711972 12766.42478075
v 4990.35780144 0.17866258 12755.88019479
v 4978.66179657 0.78292051 12754.81908896
v 5445.11146259 -0.19558086 12988.92896766
v 5451.80237305 -1.20460043 12992.85615098
v 5451.81538475 -1.0089402 13000.6772817
v 5445.13747406 0.1957396 13004.57132447
v 5438.44656658 1.20475917 13000.64414116
v 5438.43354893 1.00909894 12992.82296275
v 5438.68277979 2.63079209 13000.60809203
v 5445.37369919 1.62177252 13004.53522767
v 5452.05160391 0.41709273 13000.64123258
v 5452.03859818 0.2214325 12992.82005417
v 5445.34768772 1.23045207 12988.89291854
v 5438.66977406 2.43513186 12992.78691363
v 5911.40167427 -18.13336185 11954.8982947
v 6007.70899963 -5.08325574 11972.8496857
v 6038.80631638 13.05003074 12064.8920812
v 5973.59621239 18.13321185 12138.98310954
v 5877.28888702 5.083105 12121.03167085
v 5846.19157028 -13.05018223 12028.98929919
v 5875.39813232 23.0183582 12118.13707564
v 5971.70545769 36.06846432 12136.08846665
v 6036.91551399 30.98528171 12061.99748599
v 6005.81819725 12.85199672 11969.95509049
v 5909.51087189 -0.19811014 11952.00369949
v 5844.30081558 4.88507061 12026.0946563
v 5204.28230476 0.17797338 12110.93447793
v 5201.81607914 0.16427047 12112.1249019
v 5199.55548954 -0.01376737 12110.58948628
v 5199.76110172 -0.17810378 12107.86364669
v 5202.2273035 -0.16440086 12106.67322272
v 5204.48791695 0.01363697 12108.20863834
v 5202.20915985 0.34039012 12106.6414176
v 5199.74295807 0.32668795 12107.83184157
v 5199.53732204 0.49102437 12110.557705
v 5201.79791164 0.66906257 12112.09312062
v 5204.26413727 0.68276474 12110.90269665
v 5204.46977329 0.5184287 12108.17683322
v 5140.48883629 -2.47497991 12272.67709406
v 5176.02231216 -2.67585011 12279.9275223
v 5187.54501057 -0.20090321 12314.2253458
v 5163.53423309 2.47491389 12341.27269339
v 5128.00075722 2.67578372 12334.02225323
v 5116.47805882 0.20083719 12299.72444165
v 5128.14688396 9.35561768 12333.491139
v 5163.68035984 9.15474674 12340.74157915
v 5187.69116116 6.47893039 12313.69423156
v 5176.16846275 4.00398349 12279.39641998
v 5140.63496304 4.20485406 12272.14596791
v 5116.62418556 6.88067078 12299.19333934
v 5590.00969839 16.57686719 12127.78542359
v 5710.49864006 11.87471613 12172.03228868
v 5732.22460461 -4.70219356 12297.53394791
v 5633.46162748 -16.57694995 12378.78873014
v 5512.97266644 -11.87480038 12334.54186505
v 5491.24670711 4.70211005 12209.0401939
v 5512.73449373 11.65222854 12337.69066732
v 5633.22344732 6.95007748 12381.93754432
v 5731.98642445 18.82483536 12300.68273825
v 5710.26048374 35.40174505 12175.18107902
v 5589.77153015 40.10389462 12130.93421394
v 5491.00853366 28.22913674 12212.18900808
v 5428.85341358 -6.79322293 12415.92021091
v 5417.23578882 -1.23426893 12465.13741624
v 5368.82869911 5.55894179 12479.23743626
v 5332.03923416 6.79319776 12444.12024498
v 5343.65687084 1.23424301 12394.90304561
v 5392.06396055 -5.55896771 12380.80301963
v 5344.73056507 10.54092403 12394.10531937
v 5333.11292839 16.09987878 12443.3225247
v 5369.90239334 14.86562281 12478.439713
v 5418.30948305 8.0724106 12464.33969596
v 5429.92710781 2.51345623 12415.12249063
v 5393.13765478 3.74771257 12380.00530531
v 5711.05241489 0.21669446 12831.43957245
v 5714.76716709 0.57813395 12835.42223555
v 5713.19815826 0.36149278 12840.64548597
v 5707.91442108 -0.21658788 12841.88612099
v 5704.19966888 -0.57802737 12837.90348173
v 5705.76867771 -0.3613862 12832.68020747
v 5704.09211826 0.42492211 12837.91280374
v 5707.80687046 0.78636197 12841.89541915
v 5713.09060764 1.364443 12840.65478414
v 5714.65961647 1.58108417 12835.43150987
v 5710.94488811 1.21964468 12831.44887062
v 5705.66112709 0.64156365 12832.68948179
v 5126.38921452 -0.3839239 12665.36702512
v 5045.68164062 2.14479166 12690.84743814
v 4983.22779846 2.52873125 12633.67457936
v 5001.48160172 0.38395603 12551.0212867
v 5082.18919945 -2.14475953 12525.54087367
v 5144.64299393 -2.52869949 12582.71374139
v 5082.57825089 13.49573837 12525.22093724
v 5001.87060547 16.02445319 12550.70135026
v 4983.61680222 18.16922953 12633.354631
v 5046.07064438 17.78529105 12690.52751362
v 5126.77824211 15.25657475 12665.0471006
v 5145.03204536 13.1117999 12582.39380495
v 5839.42866039 -0.60829883 12190.06283881
v 5861.65559006 6.88960734 12241.77277564
v 5827.85048199 7.49786155 12287.39090431
v 5771.81834888 0.60820958 12281.29914385
v 5749.59141922 -6.88969659 12229.58920702
v 5783.39655113 -7.49795154 12183.9710545
v 5748.42412186 3.49087794 12228.5857969
v 5770.65107536 10.98878373 12280.29570988
v 5826.68316078 17.87843644 12286.38749419
v 5860.48831654 17.27018149 12240.76934167
v 5838.26133919 9.77227532 12189.05942869
v 5782.22925377 2.88262336 12182.96764438
vn 0.12927 -0.01957 -0.99142
vn -0.12927 0.01957 0.99142
vn -0.77607 0.62036 -0.11343
vn 0.92259 0.36885 0.11301
vn -0.92259 -0.36885 -0.11301
vn 0.14652 0.98921 -0.00042
vn 0.77607 -0.62036 0.11343
vn -0.14652 -0.98921 0.00042
vn 0.13377 -0.03483 -0.9904
vn -0.13377 0.03483 0.9904
vn -0.94525 0.29569 -0.13807
vn 0.73041 0.6789 0.07478
vn -0.73041 -0.6789 -0.07478
vn -0.21484 0.9746 -0.06329
vn 0.94525 -0.29569 0.13807
vn 0.21484 -0.9746 0.06329
vn 0.01341 0.04024 -0.9991
vn -0.01341 -0.04024 0.9991
vn 0.84546 0.53303 0.03283
vn 0.03961 -0.99843 -0.0397
vn -0.03961 0.99843 0.03968
vn 0.88507 -0.4654 -0.00689
vn -0.84546 -0.53303 -0.03281
vn -0.88507 0.4654 0.00685
vn -0.00618 0.13457 -0.99089
vn 0.00618 -0.13457 0.99089
vn -0.54418 0.83088 0.11623
vn 0.99864 0.05217 0.00086
vn -0.99864 -0.05216 -0.00085
vn 0.45446 0.88304 0.11709
vn 0.54418 -0.83088 -0.11623
vn -0.45446 -0.88304 -0.11708
vn 0.07531 0.07733 -0.99416
vn -0.07531 -0.07733 0.99416
vn -0.17824 0.98198 0.06288
vn 0.93878 -0.34163 0.04454
vn -0.93878 0.34163 -0.04454
vn 0.76054 0.64034 0.10742
vn 0.17824 -0.98198 -0.06288
vn -0.76054 -0.64034 -0.10742
vn -0.17976 0.05653 -0.98208
vn 0.17976 -0.05653 0.98208
vn 0.46166 0.88642 -0.03348
vn 0.52144 -0.84107 -0.14386
vn -0.52144 0.84107 0.14386
vn 0.9831 0.04535 -0.17734
vn -0.46166 -0.88642 0.03348
vn -0.9831 -0.04535 0.17734
vn -0.02699 -0.06084 -0.99778
vn 0.02699 0.06084 0.99778
vn -0.05029 0.99697 -0.05942
vn 0.88976 -0.45642 0.00376
vn -0.88976 0.45642 -0.00376
vn 0.83947 0.54055 -0.05566
vn 0.05029 -0.99697 0.05943
vn -0.83947 -0.54055 0.05566
vn 0.08814 0.09403 -0.99166
vn -0.08814 -0.09403 0.99166
vn -0.98992 -0.1025 -0.0977
vn 0.39898 0.90886 0.12164
vn -0.39898 -0.90886 -0.12163
vn -0.59094 0.80636 0.02393
vn 0.98992 0.1025 0.0977
vn 0.59094 -0.80636 -0.02393
vn -0.06524 -0.15802 -0.98528
vn 0.06524 0.15802 0.98528
vn -0.82095 0.5698 -0.03704
vn 0.90174 0.41351 -0.12604
vn -0.90173 -0.41351 0.12602
vn 0.08079 0.9833 -0.16306
vn 0.82095 -0.5698 0.03703
vn -0.08078 -0.9833 0.16307
vn -0.16337 -0.02494 -0.98625
vn 0.16337 0.02494 0.98625
vn -0.98656 0.00245 0.16336
vn 0.49184 0.86453 -0.10335
vn -0.49184 -0.86453 0.10333
vn -0.49472 0.86698 0.06001
vn 0.98656 -0.00245 -0.16336
vn 0.49472 -0.86697 -0.06004
vn 0.10352 -0.15847 -0.98192
vn -0.10352 0.15847 0.98192
vn -0.94355 -0.32795 -0.04654
vn 0.19928 0.97051 -0.13562
vn -0.19928 -0.97051 0.13563
vn -0.74427 0.64256 -0.18217
vn 0.94355 0.32795 0.04654
vn 0.74427 -0.64256 0.18217
vn 0.03587 -0.06284 -0.99738
vn -0.03587 0.06284 0.99738
vn 0.56328 0.82566 -0.03177
vn 0.43324 -0.89838 0.07219
vn -0.43325 0.89839 -0.07209
vn 0.99653 -0.07274 0.04042
vn -0.56329 -0.82566 0.03166
vn -0.99653 0.07273 -0.04042
vn -0.0218 -0.07924 -0.99662
vn 0.0218 0.07924 0.99662
vn -0.94793 -0.31516 0.04579
vn 0.19881 0.9766 -0.082
vn -0.19881 -0.9766 0.082
vn -0.74912 0.66144 -0.0362
vn 0.94793 0.31516 -0.0458
vn 0.74912 -0.66144 0.0362
vn 0.01003 0.13265 -0.99111
vn -0.01003 -0.13265 0.99111
vn -0.98554 -0.16635 -0.03224
vn 0.34628 0.92937 0.12789
vn -0.34628 -0.92937 -0.12789
vn -0.63926 0.76302 0.09565
vn 0.98554 0.16635 0.03224
vn 0.63926 -0.76302 -0.09565
vn -0.11419 -0.08484 -0.98983
vn 0.11419 0.08484 0.98983
vn -0.28566 0.95707 -0.04908
vn 0.96686 -0.23851 -0.0911
vn -0.96686 0.23851 0.0911
vn 0.68119 0.71856 -0.14018
vn 0.28566 -0.95707 0.04908
vn -0.68119 -0.71856 0.14018
vn 0.10662 0.00921 -0.99426
vn -0.10662 -0.00921 0.99426
vn -0.95184 0.29004 -0.09939
vn 0.72487 0.68374 0.08406
vn -0.72486 -0.68374 -0.08406
vn -0.22697 0.97378 -0.01532
vn 0.95184 -0.29004 0.09938
vn 0.22697 -0.97378 0.01529
vn -0.02486 -0.02045 -0.99948
vn 0.02486 0.02045 0.99948
vn 0.67478 0.73733 -0.03187
vn 0.30139 -0.95343 0.01201
vn -0.30139 0.95343 -0.01201
vn 0.97617 -0.2161 -0.01986
vn -0.67478 -0.73733 0.03187
vn -0.97617 0.2161 0.01986
vn 0.11123 -0.09562 -0.98918
vn -0.11123 0.09562 0.98918
vn -0.79573 0.58772 -0.14629
vn 0.91345 0.4019 0.06387
vn -0.91345 -0.4019 -0.06387
vn 0.11773 0.98962 -0.08242
vn 0.79573 -0.58772 0.14629
vn -0.11773 -0.98962 0.08242
usemtl mat0
f 1//1 2//1 3//1
f 3//1 4//1 5//1
f 5//1 6//1 1//1
f 1//1 3//1 5//1
f 7//2 8//2 9//2
f 9//2 10//2 11//2
f 11//2 12//2 7//2
f 7//2 9//2 11//2
f 7//3 12//3 6//3
f 6//3 5//3 7//3
f 11//4 10//4 2//4
f 2//4 1//4 11//4
f 8//5 7//5 5//5
f 5//5 4//5 8//5
f 12//6 11//6 1//6
f 1//6 6//6 12//6
f 10//7 9//7 3//7
f 3//7 2//7 10//7
f 9//8 8//8 4//8
f 4//8 3//8 9//8
f 13//9 14//9 15//9
f 15//9 16//9 17//9
f 17//9 18//9 13//9
f 13//9 15//9 17//9
f 19//10 20//10 21//10
f 21//10 22//10 23//10
f 23//10 24//10 19//10
f 19//10 21//10 23//10
f 19//11 24//11 18//11
f 18//11 17//11 19//11
f 23//12 22//12 14//12
f 14//12 13//12 23//12
f 20//13 19//13 17//13
f 17//13 16//13 20//13
f 24//14 23//14 13//14
f 13//14 18//14 24//14
f 22//15 21//15 15//15
f 15//15 14//15 22//15
f 21//16 20//16 16//16
f 16//16 15//16 21//16
f 25//17 26//17 27//17
f 27//17 28//17 29//17
f 29//17 30//17 25//17
f 25//17 27//17 29//17
f 31//18 32//18 33//18
f 33//18 34//18 35//18
f 35//18 36//18 31//18
f 31//18 33//18 35//18
f 31//19 36//19 30//19
f 30//19 29//19 31//19
f 35//20 34//20 26//20
f 26//20 25//20 35//20
f 32//21 31//21 29//21
f 29//21 28//21 32//21
f 36//22 35//22 25//22
f 25//22 30//22 36//22
f 34//23 33//23 27//23
f 27//23 26//23 34//23
f 33//24 32//24 28//24
f 28//24 27//24 33//24
f 37//25 38//25 39//25
f 39//25 40//25 41//25
f 41//25 42//25 37//25
f 37//25 39//25 41//25
f 43//26 44//26 45//26
f 45//26 46//26 47//26
f 47//26 48//26 43//26
f 43//26 45//26 47//26
f 43//27 48//27 42//27
f 42//27 41//27 43//27
f 47//28 46//28 38//28
f 38//28 37//28 47//28
f 44//29 43//29 41//29
f 41//29 40//29 44//29
f 48//30 47//30 37//30
f 37//30 42//30 48//30
f 46//31 45//31 39//31
f 39//31 38//31 46//31
f 45//32 44//32 40//32
f 40//32 39//32 45//32
f 49//33 50//33 51//33
f 51//33 52//33 53//33
f 53//33 54//33 49//33
f 49//33 51//33 53//33
f 55//34 56//34 57//34
f 57//34 58//34 59//34
f 59//34 60//34 55//34
f 55//34 57//34 59//34
f 55//35 60//35 54//35
f 54//35 53//35 55//35
f 59//36 58//36 50//36
f 50//36 49//36 59//36
f 56//37 55//37 53//37
f 53//37 52//37 56//37
f 60//38 59//38 49//38
f 49//38 54//38 60//38
f 58//39 57//39 51//39
f 51//39 50//39 58//39
f 57//40 56//40 52//40
f 52//40 51//40 57//40
f 61//41 62//41 63//41
f 63//41 64//41 65//41
f 65//41 66//41 61//41
f 61//41 63//41 65//41
f 67//42 68//42 69//42
f 69//42 70//42 71//42
f 71//42 72//42 67//42
f 67//42 69//42 71//42
f 67//43 72//43 66//43
f 66//43 65//43 67//43
f 71//44 70//44 62//44
f 62//44 61//44 71//44
f 68//45 67//45 65//45
f 65//45 64//45 68//45
f 72//46 71//46 61//46
f 61//46 66//46 72//46
f 70//47 69//47 63//47
f 63//47 62//47 70//47
f 69//48 68//48 64//48
f 64//48 63//48 69//48
f 73//49 74//49 75//49
f 75//49 76//49 77//49
f 77//49 78//49 73//49
f 73//49 75//49 77//49
f 79//50 80//50 81//50
f 81//50 82//50 83//50
f 83//50 84//50 79//50
f 79//50 81//50 83//50
f 79//51 84//51 78//51
f 78//51 77//51 79//51
f 83//52 82//52 74//52
f 74//52 73//52 83//52
f 80//53 79//53 77//53
f 77//53 76//53 80//53
f 84//54 83//54 73//54
f 73//54 78//54 84//54
f 82//55 81//55 75//55
f 75//55 74//55 82//55
f 81//56 80//56 76//56
f 76//56 75//56 81//56
f 85//57 86//57 87//57
f 87//57 88//57 89//57
f 89//57 90//57 85//57
f 85//57 87//57 89//57
f 91//58 92//58 93//58
f 93//58 94//58 95//58
f 95//58 96//58 91//58
f 91//58 93//58 95//58
f 91//59 96//59 90//59
f 90//59 89//59 91//59
f 95//60 94//60 86//60
f 86//60 85//60 95//60
f 92//61 91//61 89//61
f 89//61 88//61 92//61
f 96//62 95//62 85//62
f 85//62 90//62 96//62
f 94//63 93//63 87//63
f 87//63 86//63 94//63
f 93//64 92//64 88//64
f 88//64 87//64 93//64
f 97//65 98//65 99//65
f 99//65 100//65 101//65
f 101//65 102//65 97//65
f 97//65 99//65 101//65
f 103//66 104//66 105//66
f 105//66 106//66 107//66
f 107//66 108//66 103//66
f 103//66 105//66 107//66
f 103//67 108//67 102//67
f 102//67 101//67 103//67
f 107//68 106//68 98//68
f 98//68 97//68 107//68
f 104//69 103//69 101//69
f 101//69 100//69 104//69
f 108//70 107//70 97//70
f 97//70 102//70 108//70
f 106//71 105//71 99//71
f 99//71 98//71 106//71
f 105//72 104//72 100//72
f 100//72 99//72 105//72
f 109//73 110//73 111//73
f 111//73 112//73 113//73
f 113//73 114//73 109//73
f 109//73 111//73 113//73
f 115//74 116//74 117//74
f 117//74 118//74 119//74
f 119//74 120//74 115//74
f 115//74 117//74 119//74
f 115//75 120//75 114//75
f 114//75 113//75 115//75
f 119//76 118//76 110//76
f 110//76 109//76 119//76
f 116//77 115//77 113//77
f 113//77 112//77 116//77
f 120//78 119//78 109//78
f 109//78 114//78 120//78
f 118//79 117//79 111//79
f 111//79 110//79 118//79
f 117//80 116//80 112//80
f 112//80 111//80 117//80
f 121//81 122//81 123//81
f 123//81 124//81 125//81
f 125//81 126//81 121//81
f 121//81 123//81 125//81
f 127//82 128//82 129//82
f 129//82 130//82 131//82
f 131//82 132//82 127//82
f 127//82 129//82 131//82
f 127//83 132//83 126//83
f 126//83 125//83 127//83
f 131//84 130//84 122//84
f 122//84 121//84 131//84
f 128//85 127//85 125//85
f 125//85 124//85 128//85
f 132//86 131//86 121//86
f 121//86 126//86 132//86
f 130//87 129//87 123//87
f 123//87 122//87 130//87
f 129//88 128//88 124//88
f 124//88 123//88 129//88
f 133//89 134//89 135//89
f 135//89 136//89 137//89
f 137//89 138//89 133//89
f 133//89 135//89 137//89
f 139//90 140//90 141//90
f 141//90 142//90 143//90
f 143//90 144//90 139//90
f 139//90 141//90 143//90
f 139//91 144//91 138//91
f 138//91 137//91 139//91
f 143//92 142//92 134//92
f 134//92 133//92 143//92
f 140//93 139//93 137//93
f 137//93 136//93 140//93
f 144//94 143//94 133//94
f 133//94 138//94 144//94
f 142//95 141//95 135//95
f 135//95 134//95 142//95
f 141//96 140//96 136//96
f 136//96 135//96 141//96
f 145//97 146//97 147//97
f 147//97 148//97 149//97
f 149//97 150//97 145//97
f 145//97 147//97 149//97
f 151//98 152//98 153//98
f 153//98 154//98 155//98
f 155//98 156//98 151//98
f 151//98 153//98 155//98
f 151//99 156//99 150//99
f 150//99 149//99 151//99
f 155//100 154//100 146//100
f 146//100 145//100 155//100
f 152//101 151//101 149//101
f 149//101 148//101 152//101
f 156//102 155//102 145//102
f 145//102 150//102 156//102
f 154//103 153//103 147//103
f 147//103 146//103 154//103
f 153//104 152//104 148//104
f 148//104 147//104 153//104
f 157//105 158//105 159//105
f 159//105 160//105 161//105
f 161//105 162//105 157//105
f 157//105 159//105 161//105
f 163//106 164//106 165//106
f 165//106 166//106 167//106
f 167//106 168//106 163//106
f 163//106 165//106 167//106
f 163//107 168//107 162//107
f 162//107 161//107 163//107
f 167//108 166//108 158//108
f 158//108 157//108 167//108
f 164//109 163//109 161//109
f 161//109 160//109 164//109
f 168//110 167//110 157//110
f 157//110 162//110 168//110
f 166//111 165//111 159//111
f 159//111 158//111 166//111
f 165//112 164//112 160//112
f 160//112 159//112 165//112
f 169//113 170//113 171//113
f 171//113 172//113 173//113
f 173//113 174//113 169//113
f 169//113 171//113 173//113
f 175//114 176//114 177//114
f 177//114 178//114 179//114
f 179//114 180//114 175//114
f 175//114 177//114 179//114
f 175//115 180//115 174//115
f 174//115 173//115 175//115
f 179//116 178//116 170//116
f 170//116 169//116 179//116
f 176//117 175//117 173//117
f 173//117 172//117 176//117
f 180//118 179//118 169//118
f 169//118 174//118 180//118
f 178//119 177//119 171//119
f 171//119 170//119 178//119
f 177//120 176//120 172//120
f 172//120 171//120 177//120
f 181//121 182//121 183//121
f 183//121 184//121 185//121
f 185//121 186//121 181//121
f 181//121 183//121 185//121
f 187//122 188//122 189//122
f 189//122 190//122 191//122
f 191//122 192//122 187//122
f 187//122 189//122 191//122
f 187//123 192//123 186//123
f 186//123 185//123 187//123
f 191//124 190//124 182//124
f 182//124 181//124 191//124
f 188//125 187//125 185//125
f 185//125 184//125 188//125
f 192//126 191//126 181//126
f 181//126 186//126 192//126
f 190//127 189//127 183//127
f 183//127 182//127 190//127
f 189//128 188//128 184//128
f 184//128 183//128 189//128
f 193//129 194//129 195//129
f 195//129 196//129 197//129
f 197//129 198//129 193//129
f 193//129 195//129 197//129
f 199//130 200//130 201//130
f 201//130 202//130 203//130
f 203//130 204//130 199//130
f 199//130 201//130 203//130
f 199//131 204//131 198//131
f 198//131 197//131 199//131
f 203//132 202//132 194//132
f 194//132 193//132 203//132
f 200//133 199//133 197//133
f 197//133 196//133 200//133
f 204//134 203//134 193//134
f 193//134 198//134 204//134
f 202//135 201//135 195//135
f 195//135 194//135 202//135
f 201//136 200//136 196//136
f 196//136 195//136 201//136
f 205//137 206//137 207//137
f 207//137 208//137 209//137
f 209//137 210//137 205//137
f 205//137 207//137 209//137
f 211//138 212//138 213//138
f 213//138 214//138 215//138
f 215//138 216//138 211//138
f 211//138 213//138 215//138
f 211//139 216//139 210//139
f 210//139 209//139 211//139
f 215//140 214//140 206//140
f 206//140 205//140 215//140
f 212//141 211//141 209//141
f 209//141 208//141 212//141
f 216//142 215//142 205//142
f 205//142 210//142 216//142
f 214//143 213//143 207//143
f 207//143 206//143 214//143
f 213//144 212//144 208//144
f 208//144 207//144 213//144
# Vertices: 216, normals: 144, texture coordinates: 0, faces: 360

