# File generated by ImageToStl.com - Free Image and 3D model conversion tools

mtllib GravelPath7.mtl

# Plane011_0
o obj1
v 6564.83917761 4.12824083 12548.92028635
v 6502.76271257 -1.49858757 12579.85968746
v 6444.94404125 -5.62682495 12541.3583152
v 6449.20185137 -4.12823542 12471.91753289
v 6511.2783246 1.49859297 12440.97813475
v 6569.09698772 5.62683073 12479.47950702
v 6510.22224951 14.31413627 12441.18994969
v 6448.14577627 8.68730638 12472.12935081
v 6443.88796616 7.18871686 12541.57012716
v 6501.70663822 11.31695424 12580.07150836
v 6563.78311443 16.94378413 12549.13210725
v 6568.04092455 18.44237365 12479.69132493
v 7053.10799408 -10.89540735 12442.60543894
v 6962.25759315 -10.50093705 12557.250616
v 6817.91900921 0.39445851 12536.1526621
v 6764.43075466 10.89538453 12400.4095073
v 6855.28113174 10.50091423 12285.76434216
v 6999.61978722 -0.39448208 12306.86227818
v 6857.11559582 37.43862346 12287.12537407
v 6766.26521873 37.83309673 12401.77053921
v 6819.7534256 27.33216923 12537.51368507
v 6964.09208107 16.43677217 12558.61164196
v 7054.94238663 16.04230188 12443.96646489
v 7001.45417976 26.54322864 12308.22331009
v 6742.42307472 4.9935002 12265.24506262
v 6810.06123352 -7.00346343 12326.92061313
v 6790.11253643 -11.99698733 12416.91971749
v 6702.52574015 -4.99354573 12445.2432475
v 6634.88759327 7.00341902 12383.56767315
v 6654.8362546 11.99694217 12293.56859263
v 6636.67153645 23.91917048 12384.90164618
v 6704.30970716 11.92220574 12446.57723245
v 6791.89652729 4.91876414 12418.25369052
v 6811.8451767 9.91228654 12328.25457424
v 6744.20704174 21.90925055 12266.57903566
v 6656.62022161 28.91269289 12294.90256566
v 6782.65976238 9.46193249 12579.88187052
v 6738.75352669 0.83101727 12628.75453948
v 6674.73857927 -8.63090352 12614.49449931
v 6654.62990332 -9.46190985 12551.36178422
v 6698.53613901 -0.83099388 12502.48911526
v 6762.55106258 8.63092617 12516.74915544
v 6696.65048647 11.2612538 12502.9305587
v 6652.74423885 2.63033932 12551.80323213
v 6672.85291481 3.46134527 12614.93594126
v 6736.8678503 12.9232657 12629.19598143
v 6780.774086 21.55418017 12580.32331248
v 6760.66541004 20.72317385 12517.19060037
v 6953.7049942 -5.0039473 12871.69047212
v 6934.61272049 -12.43920971 12971.03687263
v 6839.10557556 -7.4351946 13004.84295741
v 6762.69070435 5.00408181 12939.30264166
v 6781.78293037 12.4393431 12839.95624114
v 6877.29005146 7.43532873 12806.15015637
v 6783.35761356 31.04306985 12841.65122731
v 6764.26536369 23.60780893 12940.99760399
v 6840.68025875 11.16853365 13006.53791974
v 6936.18742752 6.16451891 12972.73183497
v 6955.27965355 13.59977945 12873.38541061
v 6878.86473465 26.03905474 12807.8451187
v 6379.16577387 1.24704691 12695.21313421
v 6380.90541887 5.60352161 12731.16355579
v 6350.62400627 4.35651038 12751.06125535
v 6318.60294867 -1.24697481 12735.00853333
v 6316.86330366 -5.60344914 12699.05811175
v 6347.14471626 -4.35643828 12679.16042412
v 6316.08918238 1.00818627 12698.29438444
v 6317.8288393 5.36466097 12734.24480602
v 6349.84989691 10.96814653 12750.2975042
v 6380.13129759 12.2151574 12730.39982848
v 6378.39164066 7.85868307 12694.44939498
v 6346.37058306 2.25519788 12678.39668488
v 6554.50104105 6.19323894 12219.86830862
v 6613.28650045 5.25631248 12284.30345701
v 6586.9925909 -0.93695721 12367.24181919
v 6501.91321599 -6.19330155 12385.74500913
v 6443.1277566 -5.25637472 12321.30986074
v 6469.42166615 0.93689497 12238.37149856
v 6442.34153557 10.8170647 12322.26085023
v 6501.1269972 9.88013862 12386.69601054
v 6586.20636988 15.13648221 12368.19280867
v 6612.50029135 21.3297519 12285.25448226
v 6553.71482003 22.26667948 12220.81933387
v 6468.6354481 17.01033439 12239.32252381
v 6002.51771736 -19.87656188 12783.01113704
v 6143.81334114 -16.60269867 12859.94924113
v 6148.06455898 3.27393559 13019.57846363
v 6011.02015305 19.87670887 13102.26960586
v 5869.72452927 16.60284566 13025.33150177
v 5865.47328758 -3.27378935 12865.70227928
v 5871.05953026 46.08076096 13021.62537552
v 6012.35520172 49.35462418 13098.5635273
v 6149.39955997 32.75185015 13015.87238506
v 6145.14834213 12.87521515 12856.24318641
v 6003.85271835 9.60135268 12779.30508232
v 5866.80833626 26.20412372 12861.99622455
v 6258.21551609 -0.23476647 11998.90962379
v 6232.55230713 -7.11562586 12044.0002049
v 6180.22007275 -6.88093992 12044.6246708
v 6153.55104733 0.23460541 12000.15850791
v 6179.21423244 7.1154648 11955.06792681
v 6231.54646683 6.88077886 11954.4434609
v 6179.27490997 16.67190084 11956.56075934
v 6153.61172485 9.79104145 12001.65129276
v 6180.28075027 2.67549686 12046.11745565
v 6232.61296082 2.44081092 12045.49308511
v 6258.27616978 9.32167031 12000.40245632
v 6231.60712051 16.4372149 11955.93629344
v 6799.29923344 -1.36155621 12897.15405261
v 6694.36314631 -11.43878333 12996.43112143
v 6555.49823868 -10.0771681 12955.39761482
v 6521.56939137 1.36167426 12815.08708706
v 6626.50547552 11.43890138 12715.81001823
v 6765.37038612 10.07728615 12756.84350101
v 6626.09528828 38.10144368 12718.08288205
v 6521.15922201 28.02421581 12817.35995087
v 6555.0880574 16.58537494 12957.67050247
v 6693.95297098 15.22375971 12998.7039614
v 6798.88903427 25.30098534 12899.42689258
v 6764.96018696 36.73982695 12759.11636482
v 6854.74361706 16.16549964 12074.63202941
v 6950.59358406 4.16060553 12138.10387318
v 6942.65519905 -12.00494306 12252.27769345
v 6838.86691856 -16.16559828 12302.97965803
v 6743.0169754 -4.16070567 12239.50782618
v 6750.95531273 12.00484441 12125.33398207
v 6743.65317154 16.97461683 12242.54453634
v 6839.50313854 4.96972161 12306.01639203
v 6943.29144287 9.13037721 12255.31442745
v 6951.2297802 25.29592356 12141.14060718
v 6855.37978935 37.30082214 12077.66871573
v 6751.59153271 33.14016393 12128.37069223
v 6258.18661976 4.48979627 12530.6534028
v 6292.30295944 -7.38507519 12607.56882085
v 6242.18644428 -11.87485394 12676.04580847
v 6157.95358944 -4.48976234 12667.60737505
v 6123.83722591 7.3851095 12590.69195997
v 6173.95374107 11.87488825 12522.21496938
v 6125.01208115 22.93271168 12592.57121441
v 6159.12844467 11.05784059 12669.48664736
v 6243.36132336 3.67274788 12677.92505694
v 6293.47783852 8.162527 12609.44806932
v 6259.36147499 20.03739809 12532.53265723
v 6175.12859631 27.42248894 12524.09422381
v 6409.37021303 18.45441371 12442.57738422
v 6248.75203896 6.27097415 12461.93799704
v 6152.61859226 -12.18346824 12332.55771133
v 6217.10330772 -18.45447182 12183.81677703
v 6377.72150564 -6.27103226 12164.4562089
v 6473.85494637 12.18340938 12293.83645587
v 6375.17811584 23.51173346 12162.09786283
v 6214.55992985 11.3282939 12181.45850248
v 6150.0751667 17.59929822 12330.19940102
v 6246.20863724 36.05374061 12459.57968078
v 6406.82682323 48.23718017 12440.21906795
v 6471.31155062 41.9661751 12291.47815749
v 7027.8733902 15.3729559 12027.99721242
v 6946.85813713 -0.94758328 12115.39557724
v 6830.81313896 -16.32062033 12087.7273659
v 6795.78337002 -15.37311596 11972.66078974
v 6876.79859924 0.94742248 11885.26240108
v 6992.8436451 16.32045878 11912.93063626
v 6873.6137085 22.91822894 11886.41291019
v 6792.59847927 6.59768901 11973.81129885
v 6827.62827206 5.6501865 12088.87787501
v 6943.67329407 21.02322243 12116.54608635
v 7024.68849945 37.34375938 12029.14767385
v 6989.65870667 38.29126375 11914.08109769
v 6478.93672216 -4.29940417 12093.23297345
v 6469.73787475 -8.42766798 12221.78631694
v 6353.91753244 -4.12831912 12278.30873331
v 6247.29601669 4.29929206 12206.27780619
v 6256.49484921 8.42755512 12077.72446269
v 6372.31522131 4.12820701 12021.20204633
v 6257.79570866 32.2080405 12078.58123983
v 6248.59687614 28.07977819 12207.13458332
v 6355.21837997 19.65216775 12279.1654866
v 6471.03874016 15.35282038 12222.64307023
v 6480.23759055 19.48108419 12094.0897029
v 6373.61609268 27.90869462 12022.05882346
v 6439.72524929 -4.5114583 12759.84104481
v 6526.52956772 -8.43859517 12760.37732036
v 6569.7614603 -3.92708053 12835.6192668
v 6526.18904638 4.51156912 12910.32491385
v 6439.38472795 8.43870637 12909.78861446
v 6396.15283537 3.92719247 12834.54669186
v 6440.11635113 24.42206268 12908.40988489
v 6526.92066956 20.49492357 12908.9461366
v 6570.4930954 12.05627355 12834.2405134
v 6527.26119089 7.54475965 12758.9985908
v 6440.45687246 11.47189726 12758.46229141
v 6396.88445854 19.91054729 12833.16793845
v 6160.46244431 -9.19367944 12691.98691531
v 6188.02878189 -0.19651295 12803.79904048
v 6104.70463562 8.99721247 12883.26829061
v 5993.81415176 9.19376991 12850.92537981
v 5966.24786186 0.19660341 12739.11329041
v 6049.57196045 -8.99712201 12659.64402835
v 5966.82602692 21.45622464 12737.26003548
v 5994.3923645 30.45339039 12849.07214873
v 6105.28284836 30.25683444 12881.41503569
v 6188.60699463 21.06310977 12801.94578556
v 6161.04065704 12.06594178 12690.13366039
v 6050.15017319 12.26249997 12657.79079727
vn 0.08212 0.01647 -0.99649
vn -0.08212 -0.01647 0.99649
vn 0.55036 0.83283 0.05912
vn 0.44438 -0.89557 0.02182
vn -0.44438 0.89557 -0.02182
vn 0.99474 -0.06274 0.08093
vn -0.55036 -0.83283 -0.05912
vn -0.99474 0.06274 -0.08094
vn -0.06786 0.05034 -0.99642
vn 0.06786 -0.05034 0.99642
vn 0.14747 0.98826 0.03989
vn 0.78081 -0.61904 -0.08445
vn -0.78081 0.61904 0.08445
vn 0.92827 0.36922 -0.04456
vn -0.14747 -0.98826 -0.03989
vn -0.92827 -0.36922 0.04456
vn -0.10456 0.07819 -0.99144
vn 0.10456 -0.07819 0.99144
vn -0.97076 0.20858 0.11883
vn 0.67251 0.73998 -0.01257
vn -0.67252 -0.73998 0.01257
vn -0.29824 0.94856 0.10625
vn 0.97076 -0.20858 -0.11883
vn 0.29824 -0.94856 -0.10626
vn 0.15398 0.03605 -0.98742
vn -0.15398 -0.03605 0.98742
vn 0.20735 0.9759 0.06796
vn 0.73297 -0.67432 0.08968
vn -0.73297 0.67432 -0.08968
vn 0.94032 0.30158 0.15764
vn -0.20735 -0.9759 -0.06796
vn -0.94032 -0.30158 -0.15764
vn -0.084 0.09041 -0.99236
vn 0.084 -0.09041 0.99236
vn -0.32626 0.93849 0.11312
vn 0.97853 -0.18062 -0.09928
vn -0.97853 0.18062 0.09928
vn 0.65227 0.75786 0.01384
vn 0.32626 -0.93849 -0.11312
vn -0.65227 -0.75786 -0.01384
vn 0.11553 -0.11398 -0.98674
vn -0.11553 0.11398 0.98674
vn -0.53763 0.82813 -0.15861
vn 0.99214 0.06123 0.10909
vn -0.99214 -0.06123 -0.10909
vn 0.45452 0.88936 -0.04951
vn 0.53763 -0.82813 0.15861
vn -0.45452 -0.88936 0.04952
vn 0.04877 0.05899 -0.99707
vn -0.04877 -0.05899 0.99707
vn -0.95224 0.30402 -0.02859
vn 0.73718 0.67144 0.07579
vn -0.73718 -0.67144 -0.07579
vn -0.21506 0.97546 0.0472
vn 0.95224 -0.30402 0.02859
vn 0.21506 -0.97546 -0.04719
vn -0.04489 -0.12462 -0.99119
vn 0.04489 0.12462 0.99119
vn -0.99864 -0.02064 0.04782
vn 0.47644 0.86941 -0.13088
vn -0.47644 -0.86941 0.13088
vn -0.5222 0.84877 -0.08306
vn 0.99864 0.02064 -0.04782
vn 0.5222 -0.84877 0.08306
vn -0.00627 0.15434 -0.988
vn 0.00627 -0.15434 0.988
vn -0.0111 0.98795 0.1544
vn 0.8715 -0.48364 -0.08108
vn -0.8715 0.48364 0.08108
vn 0.86041 0.50431 0.07332
vn 0.0111 -0.98795 -0.1544
vn -0.86041 -0.50431 -0.07331
vn 0.01533 0.08493 -0.99627
vn -0.01533 -0.08493 0.99627
vn 0.28311 0.95524 0.08579
vn 0.68893 -0.72302 -0.05104
vn -0.68893 0.72302 0.05104
vn 0.97204 0.23222 0.03475
vn -0.28311 -0.95524 -0.08579
vn -0.97204 -0.23222 -0.03475
vn -0.02978 0.14216 -0.9894
vn 0.02978 -0.14216 0.9894
vn -0.99719 0.06379 0.03918
vn 0.55807 0.82356 0.10153
vn -0.55807 -0.82356 -0.10153
vn -0.43912 0.88734 0.14071
vn 0.99719 -0.06379 -0.03918
vn 0.43912 -0.88734 -0.14071
vn -0.07481 0.11966 -0.98999
vn 0.07481 -0.11966 0.98999
vn -0.8041 0.57992 0.13086
vn 0.91281 0.40792 -0.01967
vn -0.91281 -0.40792 0.01967
vn 0.10871 0.98784 0.11119
vn 0.8041 -0.57992 -0.13086
vn -0.10871 -0.98784 -0.11119
vn 0.08482 -0.07865 -0.99329
vn -0.08482 0.07865 0.99329
vn 0.80106 0.59821 0.02104
vn 0.11263 -0.98973 0.08799
vn -0.11263 0.98973 -0.08799
vn 0.91369 -0.39152 0.10903
vn -0.80106 -0.59821 -0.02104
vn -0.91369 0.39152 -0.10903
vn 0.14327 0.05175 -0.98833
vn -0.14327 -0.05175 0.98833
vn 0.22072 0.97181 0.08288
vn 0.72514 -0.68511 0.06924
vn -0.72514 0.68511 -0.06924
vn 0.94587 0.2867 0.15213
vn -0.22072 -0.97181 -0.08288
vn -0.94587 -0.2867 -0.15213
vn -0.05459 0.03595 -0.99786
vn 0.05459 -0.03595 0.99786
vn -0.4362 0.89809 0.05622
vn 0.99596 -0.06944 -0.05698
vn -0.99596 0.06944 0.05698
vn 0.55976 0.82866 -0.00077
vn 0.4362 -0.89809 -0.05622
vn -0.55976 -0.82866 0.00076
vn -0.04556 -0.08585 -0.99527
vn 0.04556 0.08585 0.99527
vn -0.86626 -0.4928 0.08216
vn 0.00226 0.99629 -0.08604
vn -0.00226 -0.99629 0.08605
vn -0.86399 0.50349 -0.00388
vn 0.86626 0.4928 -0.08216
vn 0.86399 -0.50349 0.00388
vn -0.02708 -0.08681 -0.99586
vn 0.02708 0.08681 0.99586
vn -0.69204 0.72052 -0.04399
vn 0.97073 0.23555 -0.04693
vn -0.97073 -0.23555 0.04693
vn 0.27869 0.95607 -0.09092
vn 0.69204 -0.72052 0.04399
vn -0.27869 -0.95607 0.09092
usemtl mat0
f 1//1 2//1 3//1
f 3//1 4//1 5//1
f 5//1 6//1 1//1
f 1//1 3//1 5//1
f 7//2 8//2 9//2
f 9//2 10//2 11//2
f 11//2 12//2 7//2
f 7//2 9//2 11//2
f 7//3 12//3 6//3
f 6//3 5//3 7//3
f 11//4 10//4 2//4
f 2//4 1//4 11//4
f 8//5 7//5 5//5
f 5//5 4//5 8//5
f 12//6 11//6 1//6
f 1//6 6//6 12//6
f 10//7 9//7 3//7
f 3//7 2//7 10//7
f 9//8 8//8 4//8
f 4//8 3//8 9//8
f 13//9 14//9 15//9
f 15//9 16//9 17//9
f 17//9 18//9 13//9
f 13//9 15//9 17//9
f 19//10 20//10 21//10
f 21//10 22//10 23//10
f 23//10 24//10 19//10
f 19//10 21//10 23//10
f 19//11 24//11 18//11
f 18//11 17//11 19//11
f 23//12 22//12 14//12
f 14//12 13//12 23//12
f 20//13 19//13 17//13
f 17//13 16//13 20//13
f 24//14 23//14 13//14
f 13//14 18//14 24//14
f 22//15 21//15 15//15
f 15//15 14//15 22//15
f 21//16 20//16 16//16
f 16//16 15//16 21//16
f 25//17 26//17 27//17
f 27//17 28//17 29//17
f 29//17 30//17 25//17
f 25//17 27//17 29//17
f 31//18 32//18 33//18
f 33//18 34//18 35//18
f 35//18 36//18 31//18
f 31//18 33//18 35//18
f 31//19 36//19 30//19
f 30//19 29//19 31//19
f 35//20 34//20 26//20
f 26//20 25//20 35//20
f 32//21 31//21 29//21
f 29//21 28//21 32//21
f 36//22 35//22 25//22
f 25//22 30//22 36//22
f 34//23 33//23 27//23
f 27//23 26//23 34//23
f 33//24 32//24 28//24
f 28//24 27//24 33//24
f 37//25 38//25 39//25
f 39//25 40//25 41//25
f 41//25 42//25 37//25
f 37//25 39//25 41//25
f 43//26 44//26 45//26
f 45//26 46//26 47//26
f 47//26 48//26 43//26
f 43//26 45//26 47//26
f 43//27 48//27 42//27
f 42//27 41//27 43//27
f 47//28 46//28 38//28
f 38//28 37//28 47//28
f 44//29 43//29 41//29
f 41//29 40//29 44//29
f 48//30 47//30 37//30
f 37//30 42//30 48//30
f 46//31 45//31 39//31
f 39//31 38//31 46//31
f 45//32 44//32 40//32
f 40//32 39//32 45//32
f 49//33 50//33 51//33
f 51//33 52//33 53//33
f 53//33 54//33 49//33
f 49//33 51//33 53//33
f 55//34 56//34 57//34
f 57//34 58//34 59//34
f 59//34 60//34 55//34
f 55//34 57//34 59//34
f 55//35 60//35 54//35
f 54//35 53//35 55//35
f 59//36 58//36 50//36
f 50//36 49//36 59//36
f 56//37 55//37 53//37
f 53//37 52//37 56//37
f 60//38 59//38 49//38
f 49//38 54//38 60//38
f 58//39 57//39 51//39
f 51//39 50//39 58//39
f 57//40 56//40 52//40
f 52//40 51//40 57//40
f 61//41 62//41 63//41
f 63//41 64//41 65//41
f 65//41 66//41 61//41
f 61//41 63//41 65//41
f 67//42 68//42 69//42
f 69//42 70//42 71//42
f 71//42 72//42 67//42
f 67//42 69//42 71//42
f 67//43 72//43 66//43
f 66//43 65//43 67//43
f 71//44 70//44 62//44
f 62//44 61//44 71//44
f 68//45 67//45 65//45
f 65//45 64//45 68//45
f 72//46 71//46 61//46
f 61//46 66//46 72//46
f 70//47 69//47 63//47
f 63//47 62//47 70//47
f 69//48 68//48 64//48
f 64//48 63//48 69//48
f 73//49 74//49 75//49
f 75//49 76//49 77//49
f 77//49 78//49 73//49
f 73//49 75//49 77//49
f 79//50 80//50 81//50
f 81//50 82//50 83//50
f 83//50 84//50 79//50
f 79//50 81//50 83//50
f 79//51 84//51 78//51
f 78//51 77//51 79//51
f 83//52 82//52 74//52
f 74//52 73//52 83//52
f 80//53 79//53 77//53
f 77//53 76//53 80//53
f 84//54 83//54 73//54
f 73//54 78//54 84//54
f 82//55 81//55 75//55
f 75//55 74//55 82//55
f 81//56 80//56 76//56
f 76//56 75//56 81//56
f 85//57 86//57 87//57
f 87//57 88//57 89//57
f 89//57 90//57 85//57
f 85//57 87//57 89//57
f 91//58 92//58 93//58
f 93//58 94//58 95//58
f 95//58 96//58 91//58
f 91//58 93//58 95//58
f 91//59 96//59 90//59
f 90//59 89//59 91//59
f 95//60 94//60 86//60
f 86//60 85//60 95//60
f 92//61 91//61 89//61
f 89//61 88//61 92//61
f 96//62 95//62 85//62
f 85//62 90//62 96//62
f 94//63 93//63 87//63
f 87//63 86//63 94//63
f 93//64 92//64 88//64
f 88//64 87//64 93//64
f 97//65 98//65 99//65
f 99//65 100//65 101//65
f 101//65 102//65 97//65
f 97//65 99//65 101//65
f 103//66 104//66 105//66
f 105//66 106//66 107//66
f 107//66 108//66 103//66
f 103//66 105//66 107//66
f 103//67 108//67 102//67
f 102//67 101//67 103//67
f 107//68 106//68 98//68
f 98//68 97//68 107//68
f 104//69 103//69 101//69
f 101//69 100//69 104//69
f 108//70 107//70 97//70
f 97//70 102//70 108//70
f 106//71 105//71 99//71
f 99//71 98//71 106//71
f 105//72 104//72 100//72
f 100//72 99//72 105//72
f 109//73 110//73 111//73
f 111//73 112//73 113//73
f 113//73 114//73 109//73
f 109//73 111//73 113//73
f 115//74 116//74 117//74
f 117//74 118//74 119//74
f 119//74 120//74 115//74
f 115//74 117//74 119//74
f 115//75 120//75 114//75
f 114//75 113//75 115//75
f 119//76 118//76 110//76
f 110//76 109//76 119//76
f 116//77 115//77 113//77
f 113//77 112//77 116//77
f 120//78 119//78 109//78
f 109//78 114//78 120//78
f 118//79 117//79 111//79
f 111//79 110//79 118//79
f 117//80 116//80 112//80
f 112//80 111//80 117//80
f 121//81 122//81 123//81
f 123//81 124//81 125//81
f 125//81 126//81 121//81
f 121//81 123//81 125//81
f 127//82 128//82 129//82
f 129//82 130//82 131//82
f 131//82 132//82 127//82
f 127//82 129//82 131//82
f 127//83 132//83 126//83
f 126//83 125//83 127//83
f 131//84 130//84 122//84
f 122//84 121//84 131//84
f 128//85 127//85 125//85
f 125//85 124//85 128//85
f 132//86 131//86 121//86
f 121//86 126//86 132//86
f 130//87 129//87 123//87
f 123//87 122//87 130//87
f 129//88 128//88 124//88
f 124//88 123//88 129//88
f 133//89 134//89 135//89
f 135//89 136//89 137//89
f 137//89 138//89 133//89
f 133//89 135//89 137//89
f 139//90 140//90 141//90
f 141//90 142//90 143//90
f 143//90 144//90 139//90
f 139//90 141//90 143//90
f 139//91 144//91 138//91
f 138//91 137//91 139//91
f 143//92 142//92 134//92
f 134//92 133//92 143//92
f 140//93 139//93 137//93
f 137//93 136//93 140//93
f 144//94 143//94 133//94
f 133//94 138//94 144//94
f 142//95 141//95 135//95
f 135//95 134//95 142//95
f 141//96 140//96 136//96
f 136//96 135//96 141//96
f 145//97 146//97 147//97
f 147//97 148//97 149//97
f 149//97 150//97 145//97
f 145//97 147//97 149//97
f 151//98 152//98 153//98
f 153//98 154//98 155//98
f 155//98 156//98 151//98
f 151//98 153//98 155//98
f 151//99 156//99 150//99
f 150//99 149//99 151//99
f 155//100 154//100 146//100
f 146//100 145//100 155//100
f 152//101 151//101 149//101
f 149//101 148//101 152//101
f 156//102 155//102 145//102
f 145//102 150//102 156//102
f 154//103 153//103 147//103
f 147//103 146//103 154//103
f 153//104 152//104 148//104
f 148//104 147//104 153//104
f 157//105 158//105 159//105
f 159//105 160//105 161//105
f 161//105 162//105 157//105
f 157//105 159//105 161//105
f 163//106 164//106 165//106
f 165//106 166//106 167//106
f 167//106 168//106 163//106
f 163//106 165//106 167//106
f 163//107 168//107 162//107
f 162//107 161//107 163//107
f 167//108 166//108 158//108
f 158//108 157//108 167//108
f 164//109 163//109 161//109
f 161//109 160//109 164//109
f 168//110 167//110 157//110
f 157//110 162//110 168//110
f 166//111 165//111 159//111
f 159//111 158//111 166//111
f 165//112 164//112 160//112
f 160//112 159//112 165//112
f 169//113 170//113 171//113
f 171//113 172//113 173//113
f 173//113 174//113 169//113
f 169//113 171//113 173//113
f 175//114 176//114 177//114
f 177//114 178//114 179//114
f 179//114 180//114 175//114
f 175//114 177//114 179//114
f 175//115 180//115 174//115
f 174//115 173//115 175//115
f 179//116 178//116 170//116
f 170//116 169//116 179//116
f 176//117 175//117 173//117
f 173//117 172//117 176//117
f 180//118 179//118 169//118
f 169//118 174//118 180//118
f 178//119 177//119 171//119
f 171//119 170//119 178//119
f 177//120 176//120 172//120
f 172//120 171//120 177//120
f 181//121 182//121 183//121
f 183//121 184//121 185//121
f 185//121 186//121 181//121
f 181//121 183//121 185//121
f 187//122 188//122 189//122
f 189//122 190//122 191//122
f 191//122 192//122 187//122
f 187//122 189//122 191//122
f 187//123 192//123 186//123
f 186//123 185//123 187//123
f 191//124 190//124 182//124
f 182//124 181//124 191//124
f 188//125 187//125 185//125
f 185//125 184//125 188//125
f 192//126 191//126 181//126
f 181//126 186//126 192//126
f 190//127 189//127 183//127
f 183//127 182//127 190//127
f 189//128 188//128 184//128
f 184//128 183//128 189//128
f 193//129 194//129 195//129
f 195//129 196//129 197//129
f 197//129 198//129 193//129
f 193//129 195//129 197//129
f 199//130 200//130 201//130
f 201//130 202//130 203//130
f 203//130 204//130 199//130
f 199//130 201//130 203//130
f 199//131 204//131 198//131
f 198//131 197//131 199//131
f 203//132 202//132 194//132
f 194//132 193//132 203//132
f 200//133 199//133 197//133
f 197//133 196//133 200//133
f 204//134 203//134 193//134
f 193//134 198//134 204//134
f 202//135 201//135 195//135
f 195//135 194//135 202//135
f 201//136 200//136 196//136
f 196//136 195//136 201//136
# Vertices: 204, normals: 136, texture coordinates: 0, faces: 340

