# File generated by ImageToStl.com - Free Image and 3D model conversion tools

mtllib Path1.mtl

# Plane018_0
o obj1
v -200 -7.958E-05 14107.17106918
v 800 -7.958E-05 14107.17106918
v 800 41.98432806 14098.21352731
v -200 41.98432806 14098.21352731
v 800 8.101E-05 15092.82893994
v -200 8.101E-05 15092.82893994
v -200 41.98449156 15101.78646813
v 800 41.98449156 15101.78646813
v -200 41.98457273 15599.99999772
v 800 41.98457273 15599.99999772
v 800 41.98424689 13599.99999772
v -200 41.98424689 13599.99999772
vn 0 -0.99977 0.02133
vn 0 0.99977 0.02133
vn 0 0 1
usemtl mat0
f 1//1 2//1 3//1
f 3//1 4//1 1//1
f 5//2 6//2 7//2
f 7//2 8//2 5//2
f 6//3 5//3 2//3
f 2//3 1//3 6//3
f 8//3 7//3 9//3
f 9//3 10//3 8//3
f 11//3 12//3 4//3
f 4//3 3//3 11//3
# Vertices: 12, normals: 3, texture coordinates: 0, faces: 10

# Plane017_1
o obj2
v 718.56660503 -0.42346918 14965.79334791
v 828.08412442 -6.06296339 14999.37653127
v 853.89203788 -5.63941486 15111.12398473
v 770.18237128 0.42362694 15189.28825483
v 660.66485189 6.06312068 15155.70507146
v 634.85696877 5.63957262 15043.957618
v 661.86392192 27.22245005 15155.34796792
v 771.38144131 21.58295678 15188.93115129
v 855.09110791 15.51991592 15110.7668812
v 829.28319445 15.09636692 14999.0193974
v 719.76570539 20.73586161 14965.43621403
v 636.05606913 26.79890246 15043.60051446
v 204.63688972 2.55364947 14837.36044378
v 288.23738174 3.1899472 14870.87883121
v 301.04764216 0.636352 14959.99844931
v 230.25741057 -2.55354045 15015.59967998
v 146.65691856 -3.18983913 14982.08129256
v 133.84666572 -0.63624299 14892.96167446
v 146.3197787 13.44501487 14982.60641384
v 229.92026313 14.0813126 15016.12480126
v 300.71049472 17.27120506 14960.52354025
v 287.9002343 19.82480025 14871.40392216
v 204.2997347 19.18850347 14837.88553473
v 133.50952586 15.99861149 14893.48679574
v 278.99433795 0.09153135 14713.63634296
v 275.51326428 0.08343881 14714.80077834
v 272.76486461 -0.00807334 14712.3693763
v 273.49752345 -0.09149295 14708.77353889
v 276.97859713 -0.08340041 14707.60910351
v 279.72699679 0.00811174 14710.04050554
v 276.97125613 0.59473338 14707.59187329
v 273.49019004 0.58664083 14708.75630867
v 272.75752361 0.67005997 14712.35214608
v 275.50592328 0.76157212 14714.7835557
v 278.98699695 0.76966466 14713.61912032
v 279.71966338 0.68624505 14710.02327532
v 485.71944927 3.94463539 14233.93224533
v 576.24550498 21.60988848 14363.72001513
v 509.71944494 17.66521714 14508.32504573
v 352.66738226 -3.94470586 14523.14230652
v 262.14134171 -21.60995753 14393.35453671
v 328.66737901 -17.66528619 14248.74947578
v 258.03139937 7.50761371 14392.25802357
v 348.55743992 25.17286584 14522.0458237
v 505.60951776 46.78278695 14507.22856291
v 572.13554747 50.72745829 14362.62350199
v 481.60949934 33.06220852 14232.83573218
v 324.55743666 11.45228504 14247.65299297
v 234.83007085 -12.92664632 15054.10108971
v 208.04828459 -17.66226095 15175.75200455
v 90.16851977 -4.73553473 15214.16938337
v -0.92949672 12.92680849 15130.93575634
v 25.85228195 17.66242454 15009.28487183
v 143.73207711 4.73569738 14970.86752335
v 28.85593295 40.45108675 15010.83321188
v 2.07415428 35.71547023 15132.48415706
v 93.17214043 18.05312748 15215.71772342
v 211.05192042 5.12640079 15177.30040527
v 237.8336991 9.86201637 15055.6494601
v 146.73569778 27.52436053 14972.41589374
v 728.75357368 -13.45992743 14153.35272826
v 637.87160093 -11.62163072 14282.73456169
v 480.92989589 1.83822277 14268.92556699
v 414.87011052 13.45978003 14125.73473886
v 505.75206052 11.62148333 13996.35299644
v 662.69378831 -1.83837017 14010.16196081
v 508.13664096 40.71989194 13997.61455121
v 417.25469095 42.55818865 14126.99629363
v 483.31445357 30.93663139 14270.18712176
v 640.25618136 17.47677742 14283.99614679
v 731.13815412 15.63848071 14154.6143437
v 665.07836875 27.26003797 14011.42351557
v 509.59052246 0.5292258 15095.88835028
v 489.63289859 6.1646505 15135.47485996
v 445.03533063 5.63550655 15138.29149761
v 420.39537138 -0.52906114 15101.52156492
v 440.35298767 -6.16448536 15061.93505524
v 484.95055562 -5.63534236 15059.11844792
v 440.17715258 1.99766017 15060.68447557
v 420.21954387 7.63308439 15100.27095491
v 444.85951071 13.79765255 15137.04085727
v 489.45707867 14.32679649 15134.22428028
v 509.41467221 8.69137227 15094.6377706
v 484.7747357 2.52680411 15057.86786824
v 658.6009699 -1.38570785 14529.52430231
v 622.46958164 -2.3118939 14540.20539304
v 595.12227316 -0.92620019 14514.3089627
v 603.90635293 1.38567861 14477.73144163
v 640.03774119 2.31186419 14467.0503509
v 667.38504968 0.92617096 14492.94675091
v 639.98571718 9.26393911 14467.47725
v 603.85435925 8.33775306 14478.1583559
v 595.07027948 6.02587425 14514.73589214
v 622.41758797 4.64018102 14540.63230731
v 658.54897623 5.5663666 14529.95120141
v 667.33302566 7.87824541 14493.37368034
v 410.1919234 6.37794794 14838.14295708
v 456.13664781 0.25380764 14866.77406141
v 453.89973669 -6.12409114 14920.83404716
v 405.71810117 -6.37785009 14946.26289825
v 359.77338055 -0.25371026 14917.63182426
v 362.01029167 6.12418899 14863.57183851
v 360.35492709 9.72625385 14918.83331943
v 406.2996477 3.60211355 14947.46439343
v 454.48128323 3.85587249 14922.035512
v 456.71819434 10.23377175 14867.97555659
v 410.77346994 16.35791347 14839.34445226
v 362.59183821 16.10415263 14864.77333368
v 54.77720719 20.47845749 14424.82520379
v -88.81006324 16.8702082 14468.87100689
v -197.93529429 -3.60829465 14367.66489531
v -163.47319424 -20.47854443 14222.41298063
v -19.88592382 -16.87029515 14178.36717753
v 89.2392769 3.60820676 14279.57328911
v -21.68589391 10.59957025 14174.74963873
v -165.27319468 6.99132097 14218.79544183
v -199.73529473 23.86157123 14364.04735652
v -90.61006368 44.34007408 14465.25346809
v 52.97720675 47.94831957 14421.20766499
v 87.4393068 31.07807358 14275.95575031
v -191.27167072 0.08205965 14986.11535211
v -187.49815537 -0.31968656 14986.18126948
v -185.65617171 -0.40168168 14989.4986723
v -187.58758207 -0.08193059 14992.75015774
v -191.36109742 0.31981562 14992.68424037
v -193.20314175 0.40181074 14989.36683756
v -191.28647406 1.01685503 14992.66003317
v -187.51295871 0.61510882 14992.72595054
v -185.58154835 0.29535774 14989.47446509
v -187.42353201 0.37735333 14986.15706228
v -191.19704736 0.77909906 14986.09114491
v -193.12851839 1.09885015 14989.34263035
v 813.77985727 -3.13391891 14645.13457683
v 837.93719903 -2.90166367 14688.33395776
v 812.68962814 0.23227059 14730.79044899
v 763.2847155 3.13394914 14730.04758205
v 739.12737374 2.9016939 14686.84819354
v 764.37497496 -0.23223989 14644.39169472
v 739.66857513 12.02638872 14686.49649154
v 763.82591689 12.25864396 14729.69588005
v 813.23079919 9.35696541 14730.43874699
v 838.47837008 6.22303162 14687.98225576
v 814.32108898 5.99077638 14644.78287484
v 764.91617634 8.89245493 14644.03999272
v 855.49553013 -7.83537922 14518.32679485
v 733.90692353 -3.97343992 14526.1425297
v 666.53798351 3.86190939 14424.85174936
v 720.75765008 7.83532129 14315.74526451
v 842.34622634 3.97338294 14307.92952966
v 909.71516637 -3.8619666 14409.22027966
v 843.13826536 26.45578259 14309.14188262
v 721.54965877 30.31771999 14316.95761747
v 667.32999219 26.34430832 14426.06410232
v 734.69896255 18.50895925 14527.35486749
v 856.28756915 14.64702042 14519.53913264
v 910.50720539 18.62043351 14410.43263262
v 648.44758177 -4.31124528 14805.69876095
v 732.61181385 -13.46804408 14885.13517225
v 706.46848961 -9.15674532 14998.16411448
v 596.16093329 4.31135177 15031.75669849
v 511.99670121 13.46815057 14952.3202796
v 538.14002545 9.15685181 14839.29133737
v 514.52876896 34.7726647 14952.09334224
v 598.69300104 25.615864 15031.5297308
v 709.00055736 12.14776597 14997.93714679
v 735.1438816 7.83646721 14884.90820455
v 650.97964952 16.99326649 14805.47180842
v 540.6720932 30.46136405 14839.06436968
v -43.30185517 5.12074651 14818.39112402
v -55.53960122 4.29899709 14869.33364207
v -105.52581772 -0.82171081 14884.19082064
v -143.2742275 -5.12066882 14848.10545082
v -131.03648145 -4.2989194 14797.16295552
v -81.05026495 0.82178898 14782.30579212
v -132.04917508 5.33152375 14797.07502883
v -144.28692113 4.50977433 14848.01753929
v -106.53851134 8.80873234 14884.10287878
v -56.55232518 13.92943976 14869.24570021
v -44.3145488 14.75118918 14818.30321249
v -82.06298891 10.45223117 14782.21786542
v 468.28187302 1.99928749 14648.50663055
v 456.45396394 0.93320331 14658.26426099
v 442.19970354 -1.06607655 14652.8730002
v 439.77332188 -1.99927128 14637.72410897
v 451.60123096 -0.9331871 14627.96647854
v 465.85549137 1.06609276 14633.35773933
v 451.25056183 1.88330032 14627.84913967
v 439.42266792 0.81721614 14637.6067701
v 441.8490344 1.75041088 14652.75566512
v 456.10330997 3.7496905 14658.14692591
v 467.93121906 4.81577491 14648.38929547
v 465.5048374 3.88257994 14633.24040046
v 266.33311191 1.31940602 14397.55707199
v 351.63739785 0.70853454 14454.71116588
v 344.78997634 -0.61088669 14557.15702986
v 252.63826888 -1.31943644 14602.44882272
v 167.33399051 -0.70856543 14545.29473642
v 174.18141203 0.61085627 14442.84884209
v 167.30732631 18.26713203 14545.53733509
v 252.61160467 17.65626102 14602.69142897
v 344.76331214 18.36481172 14557.3996437
v 351.61073365 19.68423342 14454.95377972
v 266.30644771 20.29510443 14397.79968583
v 174.15474783 19.58655373 14443.09145593
v 351.53752085 1.29814783 14128.69941175
v 390.75924152 1.87675612 14130.57221537
v 408.77318465 0.57853874 14165.44334873
v 387.56540712 -1.29828787 14198.44176947
v 348.34368645 -1.87689616 14196.56899618
v 330.32974711 -0.57867878 14161.69780216
v 348.22083092 5.37218254 14196.90234302
v 387.44255158 5.95079083 14198.77511631
v 408.65032911 7.82761744 14165.7767259
v 390.63638598 9.12583482 14130.90553188
v 351.41466532 8.54722653 14129.03278893
v 330.20689158 6.67039992 14162.03117933
v -66.42772612 2.93913475 14583.53437057
v 12.21901836 -6.17540428 14617.72400583
v 21.93130962 -9.11452573 14703.36481783
v -47.0031436 -2.93911052 14754.81598699
v -125.64988809 6.17542851 14720.62635932
v -135.36217935 9.11455091 14634.98554353
v -123.96694926 22.02075824 14720.97930098
v -45.32023511 12.90621826 14755.16892865
v 23.61421812 6.7308021 14703.71775949
v 13.90192685 9.66992449 14618.07694748
v -64.74481763 18.78446257 14583.88731222
v -133.67924052 24.95987968 14635.33848518
vn -0.05657 -0.01685 -0.99826
vn 0.05657 0.01685 0.99826
vn -0.97271 -0.22442 0.05891
vn 0.29148 0.95602 -0.03265
vn -0.29148 -0.95602 0.03265
vn -0.68123 0.7316 0.02626
vn 0.97271 0.22442 -0.05891
vn 0.68123 -0.7316 -0.02626
vn 0.02025 0.03154 -0.9993
vn -0.02025 -0.03154 0.9993
vn -0.98963 -0.14155 -0.02453
vn 0.37165 0.92764 0.03681
vn -0.37165 -0.92764 -0.03681
vn -0.61798 0.7861 0.01229
vn 0.98963 0.14155 0.02453
vn 0.61798 -0.7861 -0.01229
vn 0.01082 -0.02539 -0.99962
vn -0.01082 0.02539 0.99962
vn 0.66277 0.74873 -0.01185
vn 0.31705 -0.94801 0.02751
vn -0.31705 0.94801 -0.02752
vn 0.97982 -0.19928 0.01566
vn -0.66277 -0.74873 0.01185
vn -0.97982 0.19928 -0.01566
vn 0.13967 -0.03726 -0.9895
vn -0.13967 0.03726 0.9895
vn -0.89773 0.41689 -0.14241
vn 0.81071 0.57807 0.09266
vn -0.81071 -0.57807 -0.09266
vn -0.08703 0.99496 -0.04975
vn 0.89773 -0.41689 0.14241
vn 0.08703 -0.99496 0.04975
vn -0.13038 0.06721 -0.98918
vn 0.13038 -0.06721 0.98918
vn -0.29789 0.94895 0.10374
vn 0.96791 -0.20757 -0.14168
vn -0.96791 0.20757 0.14168
vn 0.67002 0.74138 -0.03794
vn 0.29789 -0.94895 -0.10374
vn -0.67002 -0.74138 0.03794
vn -0.0816 0.04317 -0.99573
vn 0.0816 -0.04317 0.99573
vn 0.09063 0.99524 0.03572
vn 0.81424 -0.57325 -0.09158
vn -0.81424 0.57325 0.09158
vn 0.90488 0.42199 -0.05586
vn -0.09063 -0.99524 -0.03572
vn -0.90488 -0.42199 0.05586
vn 0.02129 -0.15142 -0.98824
vn -0.02129 0.15142 0.98824
vn -0.06049 0.98646 -0.15245
vn 0.89449 -0.43865 0.08648
vn -0.89449 0.43865 -0.08648
vn 0.834 0.54781 -0.06597
vn 0.06049 -0.98646 0.15244
vn -0.834 -0.54781 0.06597
vn 0.00747 0.06129 -0.99809
vn -0.00747 -0.06129 0.99809
vn 0.68806 0.72396 0.0496
vn 0.28437 -0.95704 -0.05664
vn -0.28437 0.95704 0.05664
vn 0.97243 -0.23308 -0.00704
vn -0.68806 -0.72396 -0.04961
vn -0.97243 0.23308 0.00704
vn -0.05776 0.11933 -0.99117
vn 0.05776 -0.11933 0.99117
vn -0.99749 0.03393 0.06221
vn 0.5343 0.84237 0.07028
vn -0.5343 -0.84237 -0.07028
vn -0.46319 0.8763 0.13249
vn 0.99749 -0.03393 -0.06221
vn 0.46318 -0.8763 -0.13249
vn 0.06483 -0.13029 -0.98935
vn -0.06483 0.13029 0.98935
vn 0.68424 0.72747 -0.05097
vn 0.28693 -0.94714 0.14353
vn -0.28693 0.94714 -0.14353
vn 0.97117 -0.21967 0.09257
vn -0.68424 -0.72747 0.05096
vn -0.97117 0.21967 -0.09257
vn -0.1064 -0.03452 -0.99372
vn 0.1064 0.03452 0.99372
vn -0.86783 -0.48459 0.10973
vn 0.01361 0.99925 -0.0362
vn -0.01361 -0.99925 0.03615
vn -0.85423 0.51466 0.0736
vn 0.86784 0.48457 -0.10975
vn 0.85424 -0.51465 -0.07358
vn -0.05916 -0.03845 -0.99751
vn 0.05916 0.03845 0.99751
vn -0.85808 0.51257 0.03114
vn 0.8708 0.48658 -0.0704
vn -0.8708 -0.48658 0.0704
vn 0.01272 0.99915 -0.03927
vn 0.85808 -0.51257 -0.03113
vn -0.01272 -0.99915 0.03927
vn -0.03516 0.05381 -0.99793
vn 0.03516 -0.05381 0.99793
vn 0.83267 0.55377 0.00053
vn 0.06228 -0.99649 -0.05593
vn -0.06228 0.99649 0.05593
vn 0.89495 -0.44272 -0.0554
vn -0.83267 -0.55377 -0.00053
vn -0.89495 0.44272 0.0554
vn -0.11801 -0.01058 -0.99296
vn 0.11801 0.01058 0.99296
vn -0.96714 0.22799 0.11252
vn 0.67859 0.72917 -0.08842
vn -0.67859 -0.72917 0.08842
vn -0.28855 0.95716 0.0241
vn 0.96714 -0.22799 -0.11252
vn 0.28855 -0.95716 -0.0241
vn 0.10458 -0.00908 -0.99448
vn -0.10458 0.00908 0.99448
vn -0.28109 0.95892 -0.03831
vn 0.9667 -0.2339 0.10379
vn -0.9667 0.2339 -0.10379
vn 0.68561 0.72501 0.06548
vn 0.28109 -0.95892 0.03831
vn -0.68562 -0.72501 -0.06548
vn 0.12344 -0.04131 -0.99149
vn -0.12344 0.04131 0.99149
vn 0.35315 0.93555 0.00499
vn 0.62657 -0.77154 0.11015
vn -0.62657 0.77154 -0.11015
vn 0.97972 0.16401 0.11514
vn -0.35315 -0.93555 -0.00499
vn -0.97971 -0.16401 -0.11514
vn 0.0014 0.01278 -0.99992
vn -0.0014 -0.01278 0.99992
vn -0.99777 0.0667 -0.00055
vn 0.55664 0.83068 0.0114
vn -0.55664 -0.83068 -0.0114
vn -0.44114 0.89737 0.01085
vn 0.99777 -0.0667 0.00055
vn 0.44114 -0.89737 -0.01085
vn 0.01693 0.04593 -0.9988
vn -0.01693 -0.04593 0.9988
vn -0.88842 -0.4576 -0.0361
vn 0.04695 0.99781 0.04667
vn -0.04695 -0.99781 -0.04669
vn -0.84147 0.5402 0.01058
vn 0.88842 0.4576 0.0361
vn 0.84147 -0.5402 -0.01058
vn -0.10559 0.02214 -0.99416
vn 0.10559 -0.02214 0.99416
vn -0.98801 -0.11556 0.10236
vn 0.39647 0.91779 -0.02167
vn -0.39647 -0.91779 0.02167
vn -0.59154 0.80223 0.0807
vn 0.98801 0.11556 -0.10236
vn 0.59154 -0.80223 -0.0807
usemtl mat0
f 13//4 14//4 15//4
f 15//4 16//4 17//4
f 17//4 18//4 13//4
f 13//4 15//4 17//4
f 19//5 20//5 21//5
f 21//5 22//5 23//5
f 23//5 24//5 19//5
f 19//5 21//5 23//5
f 19//6 24//6 18//6
f 18//6 17//6 19//6
f 23//7 22//7 14//7
f 14//7 13//7 23//7
f 20//8 19//8 17//8
f 17//8 16//8 20//8
f 24//9 23//9 13//9
f 13//9 18//9 24//9
f 22//10 21//10 15//10
f 15//10 14//10 22//10
f 21//11 20//11 16//11
f 16//11 15//11 21//11
f 25//12 26//12 27//12
f 27//12 28//12 29//12
f 29//12 30//12 25//12
f 25//12 27//12 29//12
f 31//13 32//13 33//13
f 33//13 34//13 35//13
f 35//13 36//13 31//13
f 31//13 33//13 35//13
f 31//14 36//14 30//14
f 30//14 29//14 31//14
f 35//15 34//15 26//15
f 26//15 25//15 35//15
f 32//16 31//16 29//16
f 29//16 28//16 32//16
f 36//17 35//17 25//17
f 25//17 30//17 36//17
f 34//18 33//18 27//18
f 27//18 26//18 34//18
f 33//19 32//19 28//19
f 28//19 27//19 33//19
f 37//20 38//20 39//20
f 39//20 40//20 41//20
f 41//20 42//20 37//20
f 37//20 39//20 41//20
f 43//21 44//21 45//21
f 45//21 46//21 47//21
f 47//21 48//21 43//21
f 43//21 45//21 47//21
f 43//22 48//22 42//22
f 42//22 41//22 43//22
f 47//23 46//23 38//23
f 38//23 37//23 47//23
f 44//24 43//24 41//24
f 41//24 40//24 44//24
f 48//25 47//25 37//25
f 37//25 42//25 48//25
f 46//26 45//26 39//26
f 39//26 38//26 46//26
f 45//27 44//27 40//27
f 40//27 39//27 45//27
f 49//28 50//28 51//28
f 51//28 52//28 53//28
f 53//28 54//28 49//28
f 49//28 51//28 53//28
f 55//29 56//29 57//29
f 57//29 58//29 59//29
f 59//29 60//29 55//29
f 55//29 57//29 59//29
f 55//30 60//30 54//30
f 54//30 53//30 55//30
f 59//31 58//31 50//31
f 50//31 49//31 59//31
f 56//32 55//32 53//32
f 53//32 52//32 56//32
f 60//33 59//33 49//33
f 49//33 54//33 60//33
f 58//34 57//34 51//34
f 51//34 50//34 58//34
f 57//35 56//35 52//35
f 52//35 51//35 57//35
f 61//36 62//36 63//36
f 63//36 64//36 65//36
f 65//36 66//36 61//36
f 61//36 63//36 65//36
f 67//37 68//37 69//37
f 69//37 70//37 71//37
f 71//37 72//37 67//37
f 67//37 69//37 71//37
f 67//38 72//38 66//38
f 66//38 65//38 67//38
f 71//39 70//39 62//39
f 62//39 61//39 71//39
f 68//40 67//40 65//40
f 65//40 64//40 68//40
f 72//41 71//41 61//41
f 61//41 66//41 72//41
f 70//42 69//42 63//42
f 63//42 62//42 70//42
f 69//43 68//43 64//43
f 64//43 63//43 69//43
f 73//44 74//44 75//44
f 75//44 76//44 77//44
f 77//44 78//44 73//44
f 73//44 75//44 77//44
f 79//45 80//45 81//45
f 81//45 82//45 83//45
f 83//45 84//45 79//45
f 79//45 81//45 83//45
f 79//46 84//46 78//46
f 78//46 77//46 79//46
f 83//47 82//47 74//47
f 74//47 73//47 83//47
f 80//48 79//48 77//48
f 77//48 76//48 80//48
f 84//49 83//49 73//49
f 73//49 78//49 84//49
f 82//50 81//50 75//50
f 75//50 74//50 82//50
f 81//51 80//51 76//51
f 76//51 75//51 81//51
f 85//52 86//52 87//52
f 87//52 88//52 89//52
f 89//52 90//52 85//52
f 85//52 87//52 89//52
f 91//53 92//53 93//53
f 93//53 94//53 95//53
f 95//53 96//53 91//53
f 91//53 93//53 95//53
f 91//54 96//54 90//54
f 90//54 89//54 91//54
f 95//55 94//55 86//55
f 86//55 85//55 95//55
f 92//56 91//56 89//56
f 89//56 88//56 92//56
f 96//57 95//57 85//57
f 85//57 90//57 96//57
f 94//58 93//58 87//58
f 87//58 86//58 94//58
f 93//59 92//59 88//59
f 88//59 87//59 93//59
f 97//60 98//60 99//60
f 99//60 100//60 101//60
f 101//60 102//60 97//60
f 97//60 99//60 101//60
f 103//61 104//61 105//61
f 105//61 106//61 107//61
f 107//61 108//61 103//61
f 103//61 105//61 107//61
f 103//62 108//62 102//62
f 102//62 101//62 103//62
f 107//63 106//63 98//63
f 98//63 97//63 107//63
f 104//64 103//64 101//64
f 101//64 100//64 104//64
f 108//65 107//65 97//65
f 97//65 102//65 108//65
f 106//66 105//66 99//66
f 99//66 98//66 106//66
f 105//67 104//67 100//67
f 100//67 99//67 105//67
f 109//68 110//68 111//68
f 111//68 112//68 113//68
f 113//68 114//68 109//68
f 109//68 111//68 113//68
f 115//69 116//69 117//69
f 117//69 118//69 119//69
f 119//69 120//69 115//69
f 115//69 117//69 119//69
f 115//70 120//70 114//70
f 114//70 113//70 115//70
f 119//71 118//71 110//71
f 110//71 109//71 119//71
f 116//72 115//72 113//72
f 113//72 112//72 116//72
f 120//73 119//73 109//73
f 109//73 114//73 120//73
f 118//74 117//74 111//74
f 111//74 110//74 118//74
f 117//75 116//75 112//75
f 112//75 111//75 117//75
f 121//76 122//76 123//76
f 123//76 124//76 125//76
f 125//76 126//76 121//76
f 121//76 123//76 125//76
f 127//77 128//77 129//77
f 129//77 130//77 131//77
f 131//77 132//77 127//77
f 127//77 129//77 131//77
f 127//78 132//78 126//78
f 126//78 125//78 127//78
f 131//79 130//79 122//79
f 122//79 121//79 131//79
f 128//80 127//80 125//80
f 125//80 124//80 128//80
f 132//81 131//81 121//81
f 121//81 126//81 132//81
f 130//82 129//82 123//82
f 123//82 122//82 130//82
f 129//83 128//83 124//83
f 124//83 123//83 129//83
f 133//84 134//84 135//84
f 135//84 136//84 137//84
f 137//84 138//84 133//84
f 133//84 135//84 137//84
f 139//85 140//85 141//85
f 141//85 142//85 143//85
f 143//85 144//85 139//85
f 139//85 141//85 143//85
f 139//86 144//86 138//86
f 138//86 137//86 139//86
f 143//87 142//87 134//87
f 134//87 133//87 143//87
f 140//88 139//88 137//88
f 137//88 136//88 140//88
f 144//89 143//89 133//89
f 133//89 138//89 144//89
f 142//90 141//90 135//90
f 135//90 134//90 142//90
f 141//91 140//91 136//91
f 136//91 135//91 141//91
f 145//92 146//92 147//92
f 147//92 148//92 149//92
f 149//92 150//92 145//92
f 145//92 147//92 149//92
f 151//93 152//93 153//93
f 153//93 154//93 155//93
f 155//93 156//93 151//93
f 151//93 153//93 155//93
f 151//94 156//94 150//94
f 150//94 149//94 151//94
f 155//95 154//95 146//95
f 146//95 145//95 155//95
f 152//96 151//96 149//96
f 149//96 148//96 152//96
f 156//97 155//97 145//97
f 145//97 150//97 156//97
f 154//98 153//98 147//98
f 147//98 146//98 154//98
f 153//99 152//99 148//99
f 148//99 147//99 153//99
f 157//100 158//100 159//100
f 159//100 160//100 161//100
f 161//100 162//100 157//100
f 157//100 159//100 161//100
f 163//101 164//101 165//101
f 165//101 166//101 167//101
f 167//101 168//101 163//101
f 163//101 165//101 167//101
f 163//102 168//102 162//102
f 162//102 161//102 163//102
f 167//103 166//103 158//103
f 158//103 157//103 167//103
f 164//104 163//104 161//104
f 161//104 160//104 164//104
f 168//105 167//105 157//105
f 157//105 162//105 168//105
f 166//106 165//106 159//106
f 159//106 158//106 166//106
f 165//107 164//107 160//107
f 160//107 159//107 165//107
f 169//108 170//108 171//108
f 171//108 172//108 173//108
f 173//108 174//108 169//108
f 169//108 171//108 173//108
f 175//109 176//109 177//109
f 177//109 178//109 179//109
f 179//109 180//109 175//109
f 175//109 177//109 179//109
f 175//110 180//110 174//110
f 174//110 173//110 175//110
f 179//111 178//111 170//111
f 170//111 169//111 179//111
f 176//112 175//112 173//112
f 173//112 172//112 176//112
f 180//113 179//113 169//113
f 169//113 174//113 180//113
f 178//114 177//114 171//114
f 171//114 170//114 178//114
f 177//115 176//115 172//115
f 172//115 171//115 177//115
f 181//116 182//116 183//116
f 183//116 184//116 185//116
f 185//116 186//116 181//116
f 181//116 183//116 185//116
f 187//117 188//117 189//117
f 189//117 190//117 191//117
f 191//117 192//117 187//117
f 187//117 189//117 191//117
f 187//118 192//118 186//118
f 186//118 185//118 187//118
f 191//119 190//119 182//119
f 182//119 181//119 191//119
f 188//120 187//120 185//120
f 185//120 184//120 188//120
f 192//121 191//121 181//121
f 181//121 186//121 192//121
f 190//122 189//122 183//122
f 183//122 182//122 190//122
f 189//123 188//123 184//123
f 184//123 183//123 189//123
f 193//124 194//124 195//124
f 195//124 196//124 197//124
f 197//124 198//124 193//124
f 193//124 195//124 197//124
f 199//125 200//125 201//125
f 201//125 202//125 203//125
f 203//125 204//125 199//125
f 199//125 201//125 203//125
f 199//126 204//126 198//126
f 198//126 197//126 199//126
f 203//127 202//127 194//127
f 194//127 193//127 203//127
f 200//128 199//128 197//128
f 197//128 196//128 200//128
f 204//129 203//129 193//129
f 193//129 198//129 204//129
f 202//130 201//130 195//130
f 195//130 194//130 202//130
f 201//131 200//131 196//131
f 196//131 195//131 201//131
f 205//132 206//132 207//132
f 207//132 208//132 209//132
f 209//132 210//132 205//132
f 205//132 207//132 209//132
f 211//133 212//133 213//133
f 213//133 214//133 215//133
f 215//133 216//133 211//133
f 211//133 213//133 215//133
f 211//134 216//134 210//134
f 210//134 209//134 211//134
f 215//135 214//135 206//135
f 206//135 205//135 215//135
f 212//136 211//136 209//136
f 209//136 208//136 212//136
f 216//137 215//137 205//137
f 205//137 210//137 216//137
f 214//138 213//138 207//138
f 207//138 206//138 214//138
f 213//139 212//139 208//139
f 208//139 207//139 213//139
f 217//140 218//140 219//140
f 219//140 220//140 221//140
f 221//140 222//140 217//140
f 217//140 219//140 221//140
f 223//141 224//141 225//141
f 225//141 226//141 227//141
f 227//141 228//141 223//141
f 223//141 225//141 227//141
f 223//142 228//142 222//142
f 222//142 221//142 223//142
f 227//143 226//143 218//143
f 218//143 217//143 227//143
f 224//144 223//144 221//144
f 221//144 220//144 224//144
f 228//145 227//145 217//145
f 217//145 222//145 228//145
f 226//146 225//146 219//146
f 219//146 218//146 226//146
f 225//147 224//147 220//147
f 220//147 219//147 225//147
f 229//148 230//148 231//148
f 231//148 232//148 233//148
f 233//148 234//148 229//148
f 229//148 231//148 233//148
f 235//149 236//149 237//149
f 237//149 238//149 239//149
f 239//149 240//149 235//149
f 235//149 237//149 239//149
f 235//150 240//150 234//150
f 234//150 233//150 235//150
f 239//151 238//151 230//151
f 230//151 229//151 239//151
f 236//152 235//152 233//152
f 233//152 232//152 236//152
f 240//153 239//153 229//153
f 229//153 234//153 240//153
f 238//154 237//154 231//154
f 231//154 230//154 238//154
f 237//155 236//155 232//155
f 232//155 231//155 237//155
# Vertices: 228, normals: 152, texture coordinates: 0, faces: 380

