# File generated by ImageToStl.com - Free Image and 3D model conversion tools

mtllib Path5.mtl

# Plane028_0
o obj1
v 0 -27.98968834 17007.17106918
v 1000 -27.98968834 17007.17106918
v 1000 13.99471929 16998.21352731
v 0 13.99471929 16998.21352731
v 1000 -27.98952776 17992.82893994
v 0 -27.98952776 17992.82893994
v 0 13.9948828 18001.78646813
v 1000 13.9948828 18001.78646813
v 0 13.99496397 18499.99999772
v 1000 13.99496397 18499.99999772
v 1000 13.99463812 16499.99999772
v 0 13.99463812 16499.99999772
vn 0 -0.99977 0.02133
vn 0 0.99977 0.02133
vn 0 0 1
usemtl mat0
f 1//1 2//1 3//1
f 3//1 4//1 1//1
f 5//2 6//2 7//2
f 7//2 8//2 5//2
f 6//3 5//3 2//3
f 2//3 1//3 6//3
f 8//3 7//3 9//3
f 9//3 10//3 8//3
f 11//3 12//3 4//3
f 4//3 3//3 11//3
# Vertices: 12, normals: 3, texture coordinates: 0, faces: 10

# Plane027_1
o obj2
v 918.56653595 -28.41307855 17865.79238848
v 1028.08405534 -34.05257205 17899.37557184
v 1053.8919688 -33.62902399 18011.1230253
v 970.1823022 -27.56598195 18089.2872954
v 860.66478281 -21.92648845 18055.70411203
v 834.85689968 -22.35003651 17943.95665857
v 861.86385283 -0.76715956 18055.34700849
v 971.38137222 -6.40665283 18088.93019186
v 1055.09103882 -12.46969368 18010.76592177
v 1029.28312536 -12.89324222 17899.01843797
v 919.76563631 -7.253748 17865.43525461
v 836.05600004 -1.19070715 17943.59955503
v 404.63682822 -25.43595966 17737.35948435
v 488.23732024 -24.79966193 17770.87787178
v 501.04758066 -27.3532573 17859.99748988
v 430.25734907 -30.54315006 17915.59872055
v 346.65684948 -31.17944779 17882.08033313
v 333.84659663 -28.62585241 17792.96071503
v 346.31970962 -14.54459427 17882.60545441
v 429.92020163 -13.90829653 17916.12384183
v 500.71043322 -10.71840455 17860.52258083
v 487.9001728 -8.16480935 17771.40296273
v 404.29968078 -8.80110614 17737.88459047
v 333.50945678 -11.99099812 17793.48583631
v 478.99427266 -27.89807795 17613.63539111
v 475.51320278 -27.90617048 17614.79982649
v 472.76479932 -27.99768246 17612.36842446
v 473.49746575 -28.08110191 17608.77258704
v 476.97853563 -28.07300938 17607.60815166
v 479.72693909 -27.9814974 17610.03955369
v 476.97119653 -27.39487587 17607.59092144
v 473.49012854 -27.40296842 17608.75535682
v 472.75746022 -27.31954899 17612.35119424
v 475.50586367 -27.22803702 17614.78260386
v 478.98693166 -27.21994448 17613.61816847
v 479.71959999 -27.3033639 17610.02232347
v 685.71938018 -24.04497374 17133.9312859
v 776.2454359 -6.37972113 17263.71905571
v 709.71937585 -10.32439247 17408.32410147
v 552.66732076 -31.93431452 17423.14136226
v 462.14128021 -49.59956713 17293.35357728
v 528.66731751 -45.65489579 17148.74851636
v 458.03133787 -20.48199542 17292.2570793
v 548.55737842 -2.81674376 17422.04486428
v 705.60944868 18.79317924 17407.22760349
v 772.13547839 22.73785058 17262.62255772
v 681.60943784 5.07259891 17132.83477275
v 524.55737516 -16.53732409 17147.65203354
v 434.83000935 -40.91625498 17954.10013028
v 408.04823068 -45.65187055 18075.75104512
v 290.16845068 -32.72514386 18114.16842394
v 199.0704342 -15.06280064 18030.93479691
v 225.85221287 -10.32718506 17909.28391241
v 343.73200803 -23.25391176 17870.86656392
v 228.85586387 12.46147904 17910.83225246
v 202.0740852 7.72586062 18032.48319763
v 293.17208651 -9.93648212 18115.71676399
v 411.05185892 -22.86320834 18077.29944584
v 437.8336376 -18.12759276 17955.64850067
v 346.73562869 -0.46524907 17872.41493431
v 928.7535046 -41.44953704 17053.35179917
v 837.87153184 -39.61124033 17182.73360226
v 680.92983439 -26.15138636 17168.92460756
v 614.87004902 -14.5298291 17025.73380977
v 705.7520066 -16.36812581 16896.35203701
v 862.69371922 -29.82797978 16910.16100138
v 708.13657187 12.73028423 16897.61359178
v 617.25462945 14.56858094 17026.99536454
v 683.31439966 2.94702178 17170.18616233
v 840.25611228 -10.51283219 17183.99518736
v 931.13808503 -12.3511289 17054.61338427
v 865.07829966 -0.72957164 16911.42255614
v 709.59045338 -27.4603831 17995.88739085
v 689.63282951 -21.82495864 18035.47390053
v 645.03526913 -22.35410258 18038.29053819
v 620.39530988 -28.5186705 18001.52060549
v 640.35292617 -34.15409496 17961.93409581
v 684.95048654 -33.62495102 17959.11748849
v 640.17709108 -25.99194897 17960.68351614
v 620.21948237 -20.35652474 18000.26999548
v 644.85944921 -14.19195658 18037.03989784
v 689.45700959 -13.66281264 18034.22332085
v 709.41461829 -19.29823686 17994.63681117
v 684.77466662 -25.46280503 17957.86690881
v 858.60090082 -29.37531698 17429.52334288
v 822.46951256 -30.30150256 17440.2044412
v 795.12220407 -28.91580933 17414.30801844
v 803.90628385 -26.60393052 17377.7304822
v 840.03767211 -25.67774494 17367.04939147
v 867.38498059 -27.06343817 17392.94580665
v 839.9856481 -18.72567002 17367.47630574
v 803.85429017 -19.65185607 17378.15740405
v 795.0702104 -21.96373488 17414.73493271
v 822.41751888 -23.34942811 17440.63135926
v 858.54890714 -22.42324253 17429.95025715
v 867.33295658 -20.11136373 17393.3727285
v 610.1918619 -21.61166119 17738.14201282
v 656.13658631 -27.7358015 17766.77310198
v 653.89967519 -34.11370075 17820.83308773
v 605.71803967 -34.3674597 17846.26193882
v 559.77331905 -28.24331939 17817.63086483
v 562.01023017 -21.86542014 17763.57087908
v 560.35486559 -18.26335528 17818.83236001
v 606.2995862 -24.38749559 17847.463434
v 654.48122173 -24.13373664 17822.03455257
v 656.71813284 -17.75583739 17767.97459716
v 610.77340844 -11.63169613 17739.34349283
v 562.59177671 -11.88545698 17764.77237425
v 254.7771381 -7.51115212 17324.82424436
v 111.18986767 -11.1194014 17368.87004746
v 2.06463662 -31.59790378 17267.66393589
v 36.52673667 -48.46815404 17122.4120212
v 180.1140071 -44.85990475 17078.3662181
v 289.23922298 -24.38140237 17179.57232968
v 178.314037 -17.39003888 17074.7486793
v 34.72673624 -20.99828816 17118.79448241
v 0.26466653 -4.12803838 17264.04639709
v 109.38986724 16.35046637 17365.25250867
v 252.97715284 19.95871186 17321.20670556
v 287.43923772 3.08846398 17175.95479088
v 8.72826019 -27.90754938 17886.11439268
v 12.50177554 -28.30929551 17886.18031005
v 14.34378954 -28.39129075 17889.49771287
v 12.41234885 -28.07153983 17892.74919831
v 8.6388335 -27.66979369 17892.68328094
v 6.7968195 -27.58779846 17889.36587813
v 8.71348719 -26.97275422 17892.65907374
v 12.48697221 -27.37450037 17892.72499111
v 14.4184129 -27.69425128 17889.47350566
v 12.57639891 -27.61225604 17886.15610285
v 8.80291389 -27.21050989 17886.09018548
v 6.87144287 -26.89075898 17889.34167093
v 1013.77978818 -31.12352757 17545.13362499
v 1037.93712994 -30.89127233 17588.33300591
v 1012.68955906 -27.75733861 17630.78949715
v 963.28464642 -24.85565999 17630.0466302
v 939.12730466 -25.08791523 17586.84724169
v 964.37490588 -28.22184894 17544.39074288
v 939.66850605 -15.96322041 17586.49553969
v 963.8258478 -15.73096517 17629.6949282
v 1013.23073011 -18.63264372 17630.43779515
v 1038.47830099 -21.76657751 17587.98130392
v 1014.3210199 -21.99883275 17544.78192299
v 964.91610726 -19.0971542 17544.03904088
v 1055.49546105 -35.82498788 17418.32583542
v 933.90685445 -31.96304953 17426.14157027
v 866.53791443 -24.12769974 17324.8508051
v 920.757581 -20.15428784 17215.74430508
v 1042.34615726 -24.01622619 17207.92857023
v 1109.71509728 -31.85157597 17309.2193354
v 1043.13819628 -1.53382702 17209.14092319
v 921.54958968 2.32811038 17216.95665804
v 867.32992311 -1.64530129 17326.06314289
v 934.69889347 -9.48065036 17427.35391565
v 1056.28750006 -13.34258871 17419.5381808
v 1110.5071363 -9.36917609 17310.43168836
v 848.44751268 -32.30085488 17705.6978091
v 932.61174476 -41.45765369 17785.13421282
v 906.46842052 -37.14635493 17898.16315506
v 796.1608642 -23.67825736 17931.75573907
v 711.99663212 -14.52145856 17852.31932018
v 738.13995636 -18.83275732 17739.29037794
v 714.52869988 6.7830551 17852.09238281
v 798.69293196 -2.3737456 17931.52877137
v 909.00048828 -15.84184317 17897.93618736
v 935.14381252 -20.15314193 17784.90724513
v 850.97958043 -10.99634312 17705.47085657
v 740.67202411 2.47175444 17739.06341025
v 156.69807575 -22.86886262 17718.39017976
v 144.4603297 -23.69061204 17769.33268265
v 94.4741132 -28.81131994 17784.18986121
v 56.72570342 -33.11027748 17748.10450656
v 68.96344947 -32.28852806 17697.16200368
v 118.94966596 -27.16782016 17682.30484028
v 67.95075584 -22.65808539 17697.07407698
v 55.71300979 -23.4798348 17748.01657987
v 93.46141957 -19.1808768 17784.10191935
v 143.44760574 -14.06016937 17769.24474078
v 155.68538212 -13.23841995 17718.30225306
v 117.936942 -17.53737796 17682.21691358
v 668.28181152 -25.99032164 17548.50567871
v 656.45390244 -27.05640606 17558.26330914
v 642.19964204 -29.05568544 17552.87204835
v 639.77326038 -29.98888041 17537.72315713
v 651.60116946 -28.92279599 17527.9655248
v 665.85542987 -26.92351661 17533.35678748
v 651.25050033 -26.10630857 17527.84818782
v 639.42260642 -27.17239299 17537.60581826
v 641.8489729 -26.23919802 17552.75471328
v 656.10324847 -24.23991864 17558.14597407
v 667.93115756 -23.17383422 17548.38834363
v 665.5047759 -24.10702919 17533.23944861
v 466.33305041 -26.67020311 17297.55611256
v 551.63733635 -27.28107459 17354.71020645
v 544.78991484 -28.60049588 17457.15608181
v 452.63820738 -29.30904557 17502.44787087
v 367.33392143 -28.69817409 17445.29377699
v 374.18134295 -27.3787528 17342.84789783
v 367.30725723 -9.72247757 17445.53638704
v 452.61154317 -10.33334858 17502.69047713
v 544.76325064 -9.62479789 17457.39869186
v 551.61067215 -8.30537618 17354.95282029
v 466.30638621 -7.69450518 17297.7987264
v 374.15467874 -8.40305587 17343.09051167
v 551.53745935 -26.69146154 17028.69848266
v 590.75918002 -26.11285278 17030.57125594
v 608.77312315 -27.41107045 17065.44241963
v 587.56534562 -29.28789677 17098.44081004
v 548.34362495 -29.86650553 17096.56803675
v 530.32968561 -28.56828786 17061.69687306
v 548.22076942 -22.61742659 17096.90138359
v 587.44249008 -22.0388183 17098.77415688
v 608.65026761 -20.16199169 17065.77576647
v 590.63632448 -18.86377431 17030.90460278
v 551.41460382 -19.4423826 17029.0318295
v 530.20683008 -21.31920922 17062.0302199
v 133.57220479 -25.05047439 17483.53341873
v 212.21894928 -34.16501294 17517.72305398
v 221.93124054 -37.10413533 17603.36386599
v 152.99678732 -30.92871917 17654.81503515
v 74.35004283 -21.81418062 17620.62540748
v 64.63775157 -18.87505822 17534.98459168
v 76.03298166 -5.96885137 17620.97834913
v 154.67969581 -15.08339087 17655.1679768
v 223.61414903 -21.25880704 17603.71680764
v 213.90185777 -18.31968464 17518.07599564
v 135.25511328 -9.20514703 17483.88636038
v 66.32069039 -3.02972992 17535.33753333
vn -0.05657 -0.01685 -0.99826
vn 0.05657 0.01685 0.99826
vn -0.97271 -0.22442 0.05891
vn 0.29148 0.95602 -0.03265
vn -0.29148 -0.95602 0.03265
vn -0.68123 0.7316 0.02626
vn 0.97271 0.22442 -0.05891
vn 0.68123 -0.7316 -0.02626
vn 0.02025 0.03154 -0.9993
vn -0.02025 -0.03154 0.9993
vn -0.98963 -0.14155 -0.02453
vn 0.37165 0.92764 0.03681
vn -0.37165 -0.92764 -0.03681
vn -0.61798 0.7861 0.01229
vn 0.98963 0.14155 0.02453
vn 0.61798 -0.7861 -0.01229
vn 0.01082 -0.02539 -0.99962
vn -0.01082 0.02539 0.99962
vn 0.66277 0.74873 -0.01184
vn 0.31705 -0.94801 0.0275
vn -0.31705 0.94801 -0.02752
vn 0.97982 -0.19928 0.01567
vn -0.66277 -0.74873 0.01184
vn -0.97982 0.19928 -0.01567
vn 0.13967 -0.03726 -0.9895
vn -0.13967 0.03726 0.9895
vn -0.89773 0.41689 -0.14241
vn 0.81071 0.57807 0.09266
vn -0.81071 -0.57807 -0.09266
vn -0.08703 0.99496 -0.04975
vn 0.89773 -0.41689 0.14241
vn 0.08703 -0.99496 0.04975
vn -0.13038 0.06721 -0.98918
vn 0.13038 -0.06721 0.98918
vn -0.29789 0.94895 0.10374
vn 0.96791 -0.20757 -0.14168
vn -0.96791 0.20757 0.14168
vn 0.67002 0.74138 -0.03794
vn 0.29789 -0.94895 -0.10374
vn -0.67002 -0.74138 0.03794
vn -0.0816 0.04317 -0.99573
vn 0.0816 -0.04317 0.99573
vn 0.09063 0.99524 0.03572
vn 0.81424 -0.57325 -0.09158
vn -0.81424 0.57325 0.09158
vn 0.90488 0.42199 -0.05586
vn -0.09063 -0.99524 -0.03572
vn -0.90488 -0.42199 0.05586
vn 0.02129 -0.15142 -0.98824
vn -0.02129 0.15142 0.98824
vn -0.06049 0.98646 -0.15245
vn 0.89449 -0.43865 0.08648
vn -0.89449 0.43865 -0.08648
vn 0.834 0.54781 -0.06597
vn 0.06049 -0.98646 0.15244
vn -0.834 -0.54781 0.06597
vn 0.00747 0.06129 -0.99809
vn -0.00747 -0.06129 0.99809
vn 0.68806 0.72396 0.04961
vn 0.28437 -0.95704 -0.05664
vn -0.28437 0.95704 0.05664
vn 0.97243 -0.23308 -0.00704
vn -0.68806 -0.72396 -0.0496
vn -0.97243 0.23308 0.00704
vn -0.05776 0.11933 -0.99117
vn 0.05776 -0.11933 0.99117
vn -0.99749 0.03393 0.06221
vn 0.5343 0.84237 0.07028
vn -0.5343 -0.84237 -0.07028
vn -0.46319 0.8763 0.13249
vn 0.99749 -0.03393 -0.06221
vn 0.46318 -0.8763 -0.13249
vn 0.06483 -0.13029 -0.98935
vn -0.06483 0.13029 0.98935
vn 0.68424 0.72747 -0.05097
vn 0.28693 -0.94714 0.14353
vn -0.28693 0.94714 -0.14353
vn 0.97117 -0.21967 0.09256
vn -0.68424 -0.72747 0.05097
vn -0.97117 0.21967 -0.09256
vn -0.1064 -0.03452 -0.99372
vn 0.1064 0.03452 0.99372
vn -0.86783 -0.48459 0.10977
vn 0.01361 0.99925 -0.03615
vn -0.01361 -0.99925 0.03615
vn -0.85423 0.51467 0.0736
vn 0.86784 0.48458 -0.10973
vn 0.85423 -0.51467 -0.0736
vn -0.05916 -0.03845 -0.99751
vn 0.05916 0.03845 0.99751
vn -0.85808 0.51257 0.03114
vn 0.8708 0.48658 -0.0704
vn -0.8708 -0.48658 0.0704
vn 0.01272 0.99915 -0.03927
vn 0.85808 -0.51257 -0.03114
vn -0.01272 -0.99915 0.03927
vn -0.03516 0.05381 -0.99793
vn 0.03516 -0.05381 0.99793
vn 0.83267 0.55377 0.00053
vn 0.06228 -0.99649 -0.05593
vn -0.06228 0.99649 0.05593
vn 0.89495 -0.44272 -0.0554
vn -0.83267 -0.55377 -0.00053
vn -0.89495 0.44272 0.0554
vn -0.11801 -0.01058 -0.99296
vn 0.11801 0.01058 0.99296
vn -0.96714 0.22799 0.11252
vn 0.67859 0.72917 -0.08842
vn -0.67859 -0.72917 0.08842
vn -0.28855 0.95716 0.0241
vn 0.96714 -0.22799 -0.11252
vn 0.28855 -0.95716 -0.0241
vn 0.10458 -0.00908 -0.99448
vn -0.10458 0.00908 0.99448
vn -0.28109 0.95892 -0.03831
vn 0.9667 -0.2339 0.10379
vn -0.9667 0.2339 -0.10379
vn 0.68561 0.72501 0.06548
vn 0.28109 -0.95892 0.03831
vn -0.68562 -0.72501 -0.06547
vn 0.12344 -0.04131 -0.99149
vn -0.12344 0.04131 0.99149
vn 0.35315 0.93555 0.00499
vn 0.62657 -0.77154 0.11015
vn -0.62657 0.77154 -0.11015
vn 0.97972 0.16401 0.11514
vn -0.35315 -0.93555 -0.00499
vn -0.97971 -0.16401 -0.11514
vn 0.0014 0.01278 -0.99992
vn -0.0014 -0.01278 0.99992
vn -0.99777 0.0667 -0.00055
vn 0.55664 0.83068 0.0114
vn -0.55664 -0.83068 -0.0114
vn -0.44114 0.89737 0.01085
vn 0.99777 -0.0667 0.00055
vn 0.44114 -0.89737 -0.01085
vn 0.01693 0.04593 -0.9988
vn -0.01693 -0.04593 0.9988
vn -0.88842 -0.4576 -0.0361
vn 0.04696 0.99781 0.04667
vn -0.04695 -0.99781 -0.04668
vn -0.84147 0.5402 0.01058
vn 0.88842 0.4576 0.0361
vn 0.84147 -0.5402 -0.01058
vn -0.10559 0.02214 -0.99416
vn 0.10559 -0.02214 0.99416
vn -0.98801 -0.11556 0.10236
vn 0.39647 0.91779 -0.02167
vn -0.39647 -0.91779 0.02167
vn -0.59154 0.80223 0.0807
vn 0.98801 0.11556 -0.10236
vn 0.59154 -0.80223 -0.0807
usemtl mat0
f 13//4 14//4 15//4
f 15//4 16//4 17//4
f 17//4 18//4 13//4
f 13//4 15//4 17//4
f 19//5 20//5 21//5
f 21//5 22//5 23//5
f 23//5 24//5 19//5
f 19//5 21//5 23//5
f 19//6 24//6 18//6
f 18//6 17//6 19//6
f 23//7 22//7 14//7
f 14//7 13//7 23//7
f 20//8 19//8 17//8
f 17//8 16//8 20//8
f 24//9 23//9 13//9
f 13//9 18//9 24//9
f 22//10 21//10 15//10
f 15//10 14//10 22//10
f 21//11 20//11 16//11
f 16//11 15//11 21//11
f 25//12 26//12 27//12
f 27//12 28//12 29//12
f 29//12 30//12 25//12
f 25//12 27//12 29//12
f 31//13 32//13 33//13
f 33//13 34//13 35//13
f 35//13 36//13 31//13
f 31//13 33//13 35//13
f 31//14 36//14 30//14
f 30//14 29//14 31//14
f 35//15 34//15 26//15
f 26//15 25//15 35//15
f 32//16 31//16 29//16
f 29//16 28//16 32//16
f 36//17 35//17 25//17
f 25//17 30//17 36//17
f 34//18 33//18 27//18
f 27//18 26//18 34//18
f 33//19 32//19 28//19
f 28//19 27//19 33//19
f 37//20 38//20 39//20
f 39//20 40//20 41//20
f 41//20 42//20 37//20
f 37//20 39//20 41//20
f 43//21 44//21 45//21
f 45//21 46//21 47//21
f 47//21 48//21 43//21
f 43//21 45//21 47//21
f 43//22 48//22 42//22
f 42//22 41//22 43//22
f 47//23 46//23 38//23
f 38//23 37//23 47//23
f 44//24 43//24 41//24
f 41//24 40//24 44//24
f 48//25 47//25 37//25
f 37//25 42//25 48//25
f 46//26 45//26 39//26
f 39//26 38//26 46//26
f 45//27 44//27 40//27
f 40//27 39//27 45//27
f 49//28 50//28 51//28
f 51//28 52//28 53//28
f 53//28 54//28 49//28
f 49//28 51//28 53//28
f 55//29 56//29 57//29
f 57//29 58//29 59//29
f 59//29 60//29 55//29
f 55//29 57//29 59//29
f 55//30 60//30 54//30
f 54//30 53//30 55//30
f 59//31 58//31 50//31
f 50//31 49//31 59//31
f 56//32 55//32 53//32
f 53//32 52//32 56//32
f 60//33 59//33 49//33
f 49//33 54//33 60//33
f 58//34 57//34 51//34
f 51//34 50//34 58//34
f 57//35 56//35 52//35
f 52//35 51//35 57//35
f 61//36 62//36 63//36
f 63//36 64//36 65//36
f 65//36 66//36 61//36
f 61//36 63//36 65//36
f 67//37 68//37 69//37
f 69//37 70//37 71//37
f 71//37 72//37 67//37
f 67//37 69//37 71//37
f 67//38 72//38 66//38
f 66//38 65//38 67//38
f 71//39 70//39 62//39
f 62//39 61//39 71//39
f 68//40 67//40 65//40
f 65//40 64//40 68//40
f 72//41 71//41 61//41
f 61//41 66//41 72//41
f 70//42 69//42 63//42
f 63//42 62//42 70//42
f 69//43 68//43 64//43
f 64//43 63//43 69//43
f 73//44 74//44 75//44
f 75//44 76//44 77//44
f 77//44 78//44 73//44
f 73//44 75//44 77//44
f 79//45 80//45 81//45
f 81//45 82//45 83//45
f 83//45 84//45 79//45
f 79//45 81//45 83//45
f 79//46 84//46 78//46
f 78//46 77//46 79//46
f 83//47 82//47 74//47
f 74//47 73//47 83//47
f 80//48 79//48 77//48
f 77//48 76//48 80//48
f 84//49 83//49 73//49
f 73//49 78//49 84//49
f 82//50 81//50 75//50
f 75//50 74//50 82//50
f 81//51 80//51 76//51
f 76//51 75//51 81//51
f 85//52 86//52 87//52
f 87//52 88//52 89//52
f 89//52 90//52 85//52
f 85//52 87//52 89//52
f 91//53 92//53 93//53
f 93//53 94//53 95//53
f 95//53 96//53 91//53
f 91//53 93//53 95//53
f 91//54 96//54 90//54
f 90//54 89//54 91//54
f 95//55 94//55 86//55
f 86//55 85//55 95//55
f 92//56 91//56 89//56
f 89//56 88//56 92//56
f 96//57 95//57 85//57
f 85//57 90//57 96//57
f 94//58 93//58 87//58
f 87//58 86//58 94//58
f 93//59 92//59 88//59
f 88//59 87//59 93//59
f 97//60 98//60 99//60
f 99//60 100//60 101//60
f 101//60 102//60 97//60
f 97//60 99//60 101//60
f 103//61 104//61 105//61
f 105//61 106//61 107//61
f 107//61 108//61 103//61
f 103//61 105//61 107//61
f 103//62 108//62 102//62
f 102//62 101//62 103//62
f 107//63 106//63 98//63
f 98//63 97//63 107//63
f 104//64 103//64 101//64
f 101//64 100//64 104//64
f 108//65 107//65 97//65
f 97//65 102//65 108//65
f 106//66 105//66 99//66
f 99//66 98//66 106//66
f 105//67 104//67 100//67
f 100//67 99//67 105//67
f 109//68 110//68 111//68
f 111//68 112//68 113//68
f 113//68 114//68 109//68
f 109//68 111//68 113//68
f 115//69 116//69 117//69
f 117//69 118//69 119//69
f 119//69 120//69 115//69
f 115//69 117//69 119//69
f 115//70 120//70 114//70
f 114//70 113//70 115//70
f 119//71 118//71 110//71
f 110//71 109//71 119//71
f 116//72 115//72 113//72
f 113//72 112//72 116//72
f 120//73 119//73 109//73
f 109//73 114//73 120//73
f 118//74 117//74 111//74
f 111//74 110//74 118//74
f 117//75 116//75 112//75
f 112//75 111//75 117//75
f 121//76 122//76 123//76
f 123//76 124//76 125//76
f 125//76 126//76 121//76
f 121//76 123//76 125//76
f 127//77 128//77 129//77
f 129//77 130//77 131//77
f 131//77 132//77 127//77
f 127//77 129//77 131//77
f 127//78 132//78 126//78
f 126//78 125//78 127//78
f 131//79 130//79 122//79
f 122//79 121//79 131//79
f 128//80 127//80 125//80
f 125//80 124//80 128//80
f 132//81 131//81 121//81
f 121//81 126//81 132//81
f 130//82 129//82 123//82
f 123//82 122//82 130//82
f 129//83 128//83 124//83
f 124//83 123//83 129//83
f 133//84 134//84 135//84
f 135//84 136//84 137//84
f 137//84 138//84 133//84
f 133//84 135//84 137//84
f 139//85 140//85 141//85
f 141//85 142//85 143//85
f 143//85 144//85 139//85
f 139//85 141//85 143//85
f 139//86 144//86 138//86
f 138//86 137//86 139//86
f 143//87 142//87 134//87
f 134//87 133//87 143//87
f 140//88 139//88 137//88
f 137//88 136//88 140//88
f 144//89 143//89 133//89
f 133//89 138//89 144//89
f 142//90 141//90 135//90
f 135//90 134//90 142//90
f 141//91 140//91 136//91
f 136//91 135//91 141//91
f 145//92 146//92 147//92
f 147//92 148//92 149//92
f 149//92 150//92 145//92
f 145//92 147//92 149//92
f 151//93 152//93 153//93
f 153//93 154//93 155//93
f 155//93 156//93 151//93
f 151//93 153//93 155//93
f 151//94 156//94 150//94
f 150//94 149//94 151//94
f 155//95 154//95 146//95
f 146//95 145//95 155//95
f 152//96 151//96 149//96
f 149//96 148//96 152//96
f 156//97 155//97 145//97
f 145//97 150//97 156//97
f 154//98 153//98 147//98
f 147//98 146//98 154//98
f 153//99 152//99 148//99
f 148//99 147//99 153//99
f 157//100 158//100 159//100
f 159//100 160//100 161//100
f 161//100 162//100 157//100
f 157//100 159//100 161//100
f 163//101 164//101 165//101
f 165//101 166//101 167//101
f 167//101 168//101 163//101
f 163//101 165//101 167//101
f 163//102 168//102 162//102
f 162//102 161//102 163//102
f 167//103 166//103 158//103
f 158//103 157//103 167//103
f 164//104 163//104 161//104
f 161//104 160//104 164//104
f 168//105 167//105 157//105
f 157//105 162//105 168//105
f 166//106 165//106 159//106
f 159//106 158//106 166//106
f 165//107 164//107 160//107
f 160//107 159//107 165//107
f 169//108 170//108 171//108
f 171//108 172//108 173//108
f 173//108 174//108 169//108
f 169//108 171//108 173//108
f 175//109 176//109 177//109
f 177//109 178//109 179//109
f 179//109 180//109 175//109
f 175//109 177//109 179//109
f 175//110 180//110 174//110
f 174//110 173//110 175//110
f 179//111 178//111 170//111
f 170//111 169//111 179//111
f 176//112 175//112 173//112
f 173//112 172//112 176//112
f 180//113 179//113 169//113
f 169//113 174//113 180//113
f 178//114 177//114 171//114
f 171//114 170//114 178//114
f 177//115 176//115 172//115
f 172//115 171//115 177//115
f 181//116 182//116 183//116
f 183//116 184//116 185//116
f 185//116 186//116 181//116
f 181//116 183//116 185//116
f 187//117 188//117 189//117
f 189//117 190//117 191//117
f 191//117 192//117 187//117
f 187//117 189//117 191//117
f 187//118 192//118 186//118
f 186//118 185//118 187//118
f 191//119 190//119 182//119
f 182//119 181//119 191//119
f 188//120 187//120 185//120
f 185//120 184//120 188//120
f 192//121 191//121 181//121
f 181//121 186//121 192//121
f 190//122 189//122 183//122
f 183//122 182//122 190//122
f 189//123 188//123 184//123
f 184//123 183//123 189//123
f 193//124 194//124 195//124
f 195//124 196//124 197//124
f 197//124 198//124 193//124
f 193//124 195//124 197//124
f 199//125 200//125 201//125
f 201//125 202//125 203//125
f 203//125 204//125 199//125
f 199//125 201//125 203//125
f 199//126 204//126 198//126
f 198//126 197//126 199//126
f 203//127 202//127 194//127
f 194//127 193//127 203//127
f 200//128 199//128 197//128
f 197//128 196//128 200//128
f 204//129 203//129 193//129
f 193//129 198//129 204//129
f 202//130 201//130 195//130
f 195//130 194//130 202//130
f 201//131 200//131 196//131
f 196//131 195//131 201//131
f 205//132 206//132 207//132
f 207//132 208//132 209//132
f 209//132 210//132 205//132
f 205//132 207//132 209//132
f 211//133 212//133 213//133
f 213//133 214//133 215//133
f 215//133 216//133 211//133
f 211//133 213//133 215//133
f 211//134 216//134 210//134
f 210//134 209//134 211//134
f 215//135 214//135 206//135
f 206//135 205//135 215//135
f 212//136 211//136 209//136
f 209//136 208//136 212//136
f 216//137 215//137 205//137
f 205//137 210//137 216//137
f 214//138 213//138 207//138
f 207//138 206//138 214//138
f 213//139 212//139 208//139
f 208//139 207//139 213//139
f 217//140 218//140 219//140
f 219//140 220//140 221//140
f 221//140 222//140 217//140
f 217//140 219//140 221//140
f 223//141 224//141 225//141
f 225//141 226//141 227//141
f 227//141 228//141 223//141
f 223//141 225//141 227//141
f 223//142 228//142 222//142
f 222//142 221//142 223//142
f 227//143 226//143 218//143
f 218//143 217//143 227//143
f 224//144 223//144 221//144
f 221//144 220//144 224//144
f 228//145 227//145 217//145
f 217//145 222//145 228//145
f 226//146 225//146 219//146
f 219//146 218//146 226//146
f 225//147 224//147 220//147
f 220//147 219//147 225//147
f 229//148 230//148 231//148
f 231//148 232//148 233//148
f 233//148 234//148 229//148
f 229//148 231//148 233//148
f 235//149 236//149 237//149
f 237//149 238//149 239//149
f 239//149 240//149 235//149
f 235//149 237//149 239//149
f 235//150 240//150 234//150
f 234//150 233//150 235//150
f 239//151 238//151 230//151
f 230//151 229//151 239//151
f 236//152 235//152 233//152
f 233//152 232//152 236//152
f 240//153 239//153 229//153
f 229//153 234//153 240//153
f 238//154 237//154 231//154
f 231//154 230//154 238//154
f 237//155 236//155 232//155
f 232//155 231//155 237//155
# Vertices: 228, normals: 152, texture coordinates: 0, faces: 380

